<svg xmlns="http://www.w3.org/2000/svg" xmlns:xlink="http://www.w3.org/1999/xlink" xmlns:lucid="lucid" width="1760" height="1360"><g transform="translate(0 0)" lucid:page-tab-id="0_0"><path d="M0 0h1760v1360H0z" fill="#fff"/><path d="M580 140c0 11.6-8.95 21-20 21s-20-9.4-20-21 8.95-21 20-21 20 9.4 20 21z" stroke="#000" stroke-width="2" fill="#fff"/><use xlink:href="#a" transform="matrix(1,0,0,1,545,124) translate(8.333333333333332 21.333333333333336)"/><path d="M580 140h40.76" stroke="#000" stroke-width="2" fill="none"/><path d="M635.76 140l-14.26 4.64v-9.28z"/><path d="M639 140l-18.5 6v-12zm-16.5 3.26l10.03-3.26-10.03-3.26z"/><path d="M680 140c0 11.6-8.95 21-20 21s-20-9.4-20-21 8.95-21 20-21 20 9.4 20 21z" stroke="#000" stroke-width="2" fill="#fff"/><use xlink:href="#b" transform="matrix(1,0,0,1,645,124) translate(8.333333333333332 21.333333333333336)"/><path d="M681 140h39.76" stroke="#000" stroke-width="2" fill="none"/><path d="M681 141h-1.12l.12-1-.07-1H681zM735.76 140l-14.26 4.64v-9.28z"/><path d="M739 140l-18.5 6v-12zm-16.5 3.26l10.03-3.26-10.03-3.26z"/><path d="M780 140c0 11.6-8.95 21-20 21s-20-9.4-20-21 8.95-21 20-21 20 9.4 20 21z" stroke="#000" stroke-width="2" fill="#fff"/><use xlink:href="#c" transform="matrix(1,0,0,1,745,124) translate(8.333333333333332 21.333333333333336)"/><path d="M580 281c0 11.6-8.95 21-20 21s-20-9.4-20-21 8.95-21 20-21 20 9.4 20 21z" stroke="#000" stroke-width="2" fill="#fff"/><use xlink:href="#d" transform="matrix(1,0,0,1,545,265) translate(8.333333333333332 21.333333333333336)"/><path d="M581 281h39.76" stroke="#000" stroke-width="2" fill="none"/><path d="M581 282h-1.12l.12-1-.07-1H581zM635.76 281l-14.26 4.64v-9.28z"/><path d="M639 281l-18.5 6v-12zm-16.5 3.26l10.03-3.26-10.03-3.26z"/><path d="M225 188h240v60H225z" stroke="#000" stroke-opacity="0" stroke-width="2" fill="#fff" fill-opacity="0"/><use xlink:href="#e" transform="matrix(1,0,0,1,230,192.99999999999997) translate(85.98958333333333 32.55859375)"/><path d="M280 145h240v60H280z" stroke="#000" stroke-opacity="0" stroke-width="2" fill="#fff" fill-opacity="0"/><use xlink:href="#f" transform="matrix(1,0,0,1,285,150) translate(108.07942708333333 32.55859375)"/><path d="M420 216c0 11.6-8.95 21-20 21s-20-9.4-20-21 8.95-21 20-21 20 9.4 20 21z" stroke="#0c7cba" stroke-width="2" fill="#fff"/><use xlink:href="#g" transform="matrix(1,0,0,1,385,200) translate(8.333333333333332 21.333333333333336)"/><path d="M440 78h240v60H440z" stroke="#000" stroke-opacity="0" stroke-width="2" fill="#fff" fill-opacity="0"/><use xlink:href="#h" transform="matrix(1,0,0,1,445,83) translate(103.56770833333333 32.55859375)"/><path d="M440 293h240v60H440z" stroke="#000" stroke-opacity="0" stroke-width="2" fill="#fff" fill-opacity="0"/><use xlink:href="#i" transform="matrix(1,0,0,1,445,298) translate(101.38020833333333 32.55859375)"/><path d="M1220 142c0 11.6-8.95 21-20 21s-20-9.4-20-21 8.95-21 20-21 20 9.4 20 21z" stroke="#000" stroke-width="2" fill="#fff"/><use xlink:href="#a" transform="matrix(1,0,0,1,1185,126) translate(8.333333333333332 21.333333333333336)"/><path d="M1220 142h40.76" stroke="#000" stroke-width="2" fill="none"/><path d="M1275.76 142l-14.26 4.64v-9.28z"/><path d="M1279 142l-18.5 6v-12zm-16.5 3.26l10.03-3.26-10.03-3.26z"/><path d="M1320 142c0 11.6-8.95 21-20 21s-20-9.4-20-21 8.95-21 20-21 20 9.4 20 21z" stroke="#000" stroke-width="2" fill="#fff"/><use xlink:href="#b" transform="matrix(1,0,0,1,1285,126) translate(8.333333333333332 21.333333333333336)"/><path d="M1321 142h39.76" stroke="#000" stroke-width="2" fill="none"/><path d="M1321 143h-1.12l.12-1-.07-1h1.07zM1375.76 142l-14.26 4.64v-9.28z"/><path d="M1379 142l-18.5 6v-12zm-16.5 3.26l10.03-3.26-10.03-3.26z"/><path d="M1420 142c0 11.6-8.95 21-20 21s-20-9.4-20-21 8.95-21 20-21 20 9.4 20 21z" stroke="#000" stroke-width="2" fill="#fff"/><use xlink:href="#c" transform="matrix(1,0,0,1,1385,126) translate(8.333333333333332 21.333333333333336)"/><path d="M1220 283c0 11.6-8.95 21-20 21s-20-9.4-20-21 8.95-21 20-21 20 9.4 20 21z" stroke="#000" stroke-width="2" fill="#fff"/><use xlink:href="#d" transform="matrix(1,0,0,1,1185,267) translate(8.333333333333332 21.333333333333336)"/><path d="M1221 283h39.76" stroke="#000" stroke-width="2" fill="none"/><path d="M1221 284h-1.12l.12-1-.07-1h1.07zM1275.76 283l-14.26 4.64v-9.28z"/><path d="M1279 283l-18.5 6v-12zm-16.5 3.26l10.03-3.26-10.03-3.26z"/><path d="M865 190h240v60H865z" stroke="#000" stroke-opacity="0" stroke-width="2" fill="#fff" fill-opacity="0"/><use xlink:href="#j" transform="matrix(1,0,0,1,870,194.99999999999997) translate(85.98958333333333 32.55859375)"/><path d="M1170 79h60v60h-60z" stroke="#000" stroke-opacity="0" stroke-width="2" fill="#fff" fill-opacity="0"/><use xlink:href="#f" transform="matrix(1,0,0,1,1175,84) translate(18.079427083333332 32.55859375)"/><path d="M1060 218c0 11.6-8.95 21-20 21s-20-9.4-20-21 8.95-21 20-21 20 9.4 20 21z" stroke="#000" stroke-width="2" fill="#fff"/><use xlink:href="#k" transform="matrix(1,0,0,1,1025,202) translate(8.333333333333332 21.333333333333336)"/><path d="M1180 80h240v60h-240z" stroke="#000" stroke-opacity="0" stroke-width="2" fill="#fff" fill-opacity="0"/><use xlink:href="#l" transform="matrix(1,0,0,1,1185,85) translate(103.56770833333333 32.55859375)"/><path d="M1080 295h240v60h-240z" stroke="#000" stroke-opacity="0" stroke-width="2" fill="#fff" fill-opacity="0"/><use xlink:href="#i" transform="matrix(1,0,0,1,1085,300) translate(101.38020833333333 32.55859375)"/><path d="M1061 218l102.67-66.13" stroke="#0c7cba" stroke-width="2" fill="none"/><path d="M1061.54 218.84l-1.78 1.15.24-2-.04-.52.5-.32zM1166.8 155.37l-5.03-7.8 14.5-3.82z" fill="#0c7cba"/><path d="M1166.7 157.07l-6.5-10.1L1179 142zm-3.34-8.87l3.53 5.48 6.66-8.18z" fill="#0c7cba"/><path d="M740 32h320v65.08H740z" stroke="#000" stroke-opacity="0" stroke-width="2" fill="#fff" fill-opacity="0"/><use xlink:href="#m" transform="matrix(1,0,0,1,745,37) translate(33.99088541666666 35.55859375)"/><use xlink:href="#n" transform="matrix(1,0,0,1,745,37) translate(59.02994791666666 35.55859375)"/><use xlink:href="#o" transform="matrix(1,0,0,1,745,37) translate(93.53515625 35.55859375)"/><use xlink:href="#p" transform="matrix(1,0,0,1,745,37) translate(169.25130208333334 35.55859375)"/><use xlink:href="#q" transform="matrix(1,0,0,1,745,37) translate(203.75651041666669 35.55859375)"/><path d="M580 482c0 11.6-8.95 21-20 21s-20-9.4-20-21 8.95-21 20-21 20 9.4 20 21z" stroke="#000" stroke-width="2" fill="#fff"/><use xlink:href="#r" transform="matrix(1,0,0,1,545,466) translate(8.333333333333332 21.333333333333336)"/><path d="M680 482c0 11.6-8.95 21-20 21s-20-9.4-20-21 8.95-21 20-21 20 9.4 20 21z" stroke="#000" stroke-width="2" fill="#fff"/><use xlink:href="#s" transform="matrix(1,0,0,1,645,466) translate(8.333333333333332 21.333333333333336)"/><path d="M681 482h39.76" stroke="#000" stroke-width="2" fill="none"/><path d="M681 483h-1.12l.12-1-.07-1H681zM735.76 482l-14.26 4.64v-9.28z"/><path d="M739 482l-18.5 6v-12zm-16.5 3.26l10.03-3.26-10.03-3.26z"/><path d="M780 482c0 11.6-8.95 21-20 21s-20-9.4-20-21 8.95-21 20-21 20 9.4 20 21z" stroke="#000" stroke-width="2" fill="#fff"/><use xlink:href="#t" transform="matrix(1,0,0,1,745,466) translate(8.333333333333332 21.333333333333336)"/><path d="M580 623c0 11.6-8.95 21-20 21s-20-9.4-20-21 8.95-21 20-21 20 9.4 20 21z" stroke="#000" stroke-width="2" fill="#fff"/><use xlink:href="#u" transform="matrix(1,0,0,1,545,607) translate(8.333333333333332 21.333333333333336)"/><path d="M581 623h40.1" stroke="#000" stroke-width="2" fill="none"/><path d="M581 624h-1.12l.12-1-.07-1H581zM636.1 623l-14.27 4.64v-9.28z"/><path d="M639.33 623l-18.5 6v-12zm-16.5 3.26l10.03-3.26-10.03-3.26z"/><path d="M225 530h240v60H225z" stroke="#000" stroke-opacity="0" stroke-width="2" fill="#fff" fill-opacity="0"/><use xlink:href="#j" transform="matrix(1,0,0,1,230,535) translate(85.98958333333333 32.55859375)"/><path d="M531.33 636h60v60h-60z" stroke="#000" stroke-opacity="0" stroke-width="2" fill="#fff" fill-opacity="0"/><use xlink:href="#f" transform="matrix(1,0,0,1,536.3333333333333,641) translate(18.079427083333332 32.55859375)"/><path d="M420 558c0 11.6-8.95 21-20 21s-20-9.4-20-21 8.95-21 20-21 20 9.4 20 21z" stroke="#000" stroke-width="2" fill="#fff"/><use xlink:href="#k" transform="matrix(1,0,0,1,385,542) translate(8.333333333333332 21.333333333333336)"/><path d="M540 420h240v60H540z" stroke="#000" stroke-opacity="0" stroke-width="2" fill="#fff" fill-opacity="0"/><use xlink:href="#v" transform="matrix(1,0,0,1,545,425) translate(103.56770833333333 32.55859375)"/><path d="M541.33 635h240v60h-240z" stroke="#000" stroke-opacity="0" stroke-width="2" fill="#fff" fill-opacity="0"/><use xlink:href="#w" transform="matrix(1,0,0,1,546.3333333333333,640) translate(101.38020833333333 32.55859375)"/><path d="M421 558l102.67-66.13" stroke="#000" stroke-width="2" fill="none"/><path d="M421.54 558.84l-1.78 1.15.24-2-.04-.52.5-.32zM526.8 495.37l-5.03-7.8 14.5-3.82z"/><path d="M526.7 497.07l-6.5-10.1L539 482zm-3.34-8.87l3.53 5.48 6.66-8.18z"/><path d="M560 504v78.76" stroke="#0c7cba" stroke-width="2" fill="none"/><path d="M560 503l1-.07V504h-2v-1.12zM560 597.76l-4.64-14.26h9.28z" fill="#0c7cba"/><path d="M560 601l-6-18.5h12zm-3.26-16.5l3.26 10.03 3.26-10.03z" fill="#0c7cba"/><path d="M1218.67 484c0 11.6-8.96 21-20 21-11.05 0-20-9.4-20-21s8.95-21 20-21c11.04 0 20 9.4 20 21z" stroke="#000" stroke-width="2" fill="#fff"/><use xlink:href="#r" transform="matrix(1,0,0,1,1183.6666666666667,467.99999999999994) translate(8.333333333333332 21.333333333333336)"/><path d="M1318.67 484c0 11.6-8.96 21-20 21-11.05 0-20-9.4-20-21s8.95-21 20-21c11.04 0 20 9.4 20 21z" stroke="#000" stroke-width="2" fill="#fff"/><use xlink:href="#s" transform="matrix(1,0,0,1,1283.6666666666667,467.99999999999994) translate(8.333333333333332 21.333333333333336)"/><path d="M1319.67 484h39.76" stroke="#000" stroke-width="2" fill="none"/><path d="M1319.67 485h-1.12l.12-1-.07-1h1.07zM1374.43 484l-14.27 4.64v-9.28z"/><path d="M1377.66 484l-18.5 6v-12zm-16.5 3.26l10.03-3.26-10.04-3.26z"/><path d="M1418.67 484c0 11.6-8.96 21-20 21-11.05 0-20-9.4-20-21s8.95-21 20-21c11.04 0 20 9.4 20 21z" stroke="#000" stroke-width="2" fill="#fff"/><use xlink:href="#t" transform="matrix(1,0,0,1,1383.6666666666667,467.99999999999994) translate(8.333333333333332 21.333333333333336)"/><path d="M1218.67 625c0 11.6-8.96 21-20 21-11.05 0-20-9.4-20-21s8.95-21 20-21c11.04 0 20 9.4 20 21z" stroke="#000" stroke-width="2" fill="#fff"/><use xlink:href="#u" transform="matrix(1,0,0,1,1183.6666666666667,609) translate(8.333333333333332 21.333333333333336)"/><path d="M863.67 532h240v60h-240z" stroke="#000" stroke-opacity="0" stroke-width="2" fill="#fff" fill-opacity="0"/><use xlink:href="#j" transform="matrix(1,0,0,1,868.6666666666666,537) translate(85.98958333333333 32.55859375)"/><path d="M1169 638h60v60h-60z" stroke="#000" stroke-opacity="0" stroke-width="2" fill="#fff" fill-opacity="0"/><use xlink:href="#x" transform="matrix(1,0,0,1,1174,643) translate(18.079427083333332 32.55859375)"/><path d="M1058.67 560c0 11.6-8.96 21-20 21-11.05 0-20-9.4-20-21s8.95-21 20-21c11.04 0 20 9.4 20 21z" stroke="#000" stroke-width="2" fill="#fff"/><use xlink:href="#k" transform="matrix(1,0,0,1,1023.6666666666667,544) translate(8.333333333333332 21.333333333333336)"/><path d="M1180 420h240v60h-240z" stroke="#000" stroke-opacity="0" stroke-width="2" fill="#fff" fill-opacity="0"/><use xlink:href="#y" transform="matrix(1,0,0,1,1185,425) translate(103.56770833333333 32.55859375)"/><path d="M1281.4 638h57.6v48h-57.6z" stroke="#000" stroke-opacity="0" stroke-width="2" fill="#fff" fill-opacity="0"/><use xlink:href="#z" transform="matrix(1,0,0,1,1286.4,643) translate(10.380208333333332 26.55859375)"/><path d="M1059.67 560l102.66-66.13" stroke="#000" stroke-width="2" fill="none"/><path d="M1060.2 560.84l-1.77 1.15.24-2-.04-.52.5-.32zM1165.46 497.37l-5.02-7.8 14.5-3.82z"/><path d="M1165.36 499.07l-6.5-10.1 18.8-4.97zm-3.33-8.87l3.53 5.48 6.66-8.18z"/><path d="M1198.67 506v78.76" stroke="#000" stroke-width="2" fill="none"/><path d="M1198.67 505l1-.07V506h-2v-1.12zM1198.67 599.76l-4.64-14.26h9.27z"/><path d="M1198.67 603l-6.02-18.5h12.03zm-3.26-16.5l3.27 10.03 3.26-10.03z"/><path d="M1213.6 609.75l61.05-94.27" stroke="#0c7cba" stroke-width="2" fill="none"/><path d="M1214.44 610.3l-.7 1.08-1.4-1.53.42-.65zM1278.94 517.38l-7.78-5.04 11.64-9.45z" fill="#0c7cba"/><path d="M1279.55 518.97l-10.1-6.54 15.1-12.26zm-6.7-6.72l5.48 3.54 2.7-10.2z" fill="#0c7cba"/><path d="M1339 625c0 11.6-13.13 21-29.33 21-16.2 0-29.34-9.4-29.34-21s13.14-21 29.34-21 29.33 9.4 29.33 21z" stroke="#000" stroke-width="2" fill="#fff"/><use xlink:href="#A" transform="matrix(1,0,0,1,1285.3333333333333,609) translate(2.888888888888893 20)"/><path d="M698.67 281c0 11.6-13.14 21-29.34 21S640 292.6 640 281s13.13-21 29.33-21c16.2 0 29.34 9.4 29.34 21z" stroke="#000" stroke-width="2" fill="#fff"/><use xlink:href="#B" transform="matrix(1,0,0,1,645,265) translate(2.888888888888893 20)"/><path d="M1338.67 283c0 11.6-13.14 21-29.34 21s-29.33-9.4-29.33-21 13.13-21 29.33-21c16.2 0 29.34 9.4 29.34 21z" stroke="#000" stroke-width="2" fill="#fff"/><g><use xlink:href="#B" transform="matrix(1,0,0,1,1285,267) translate(2.888888888888893 20)"/></g><path d="M699 623c0 11.6-13.13 21-29.33 21-16.2 0-29.34-9.4-29.34-21s13.14-21 29.34-21S699 611.4 699 623z" stroke="#000" stroke-width="2" fill="#fff"/><g><use xlink:href="#B" transform="matrix(1,0,0,1,645.3333333333335,607) translate(2.888888888888893 20)"/></g><defs><path d="M110-14l48 5v9H32v-9l48-5v-192l-48 17v-10l69-39h9v224" id="C"/><use transform="matrix(0.07407407407407408,0,0,0.07407407407407408,0,0)" xlink:href="#C" id="a"/><path d="M104-123c39 3 61 21 62 59C167 7 83 12 19-4l-2-50h12c2 29 16 43 51 43 38 0 54-19 54-55 2-43-34-49-75-50v-14c37 0 64-7 64-48 0-47-47-56-81-36l-6 29H24v-46c51-13 135-13 131 51-2 34-20 52-51 57" id="D"/><use transform="matrix(0.07407407407407408,0,0,0.07407407407407408,0,0)" xlink:href="#D" id="b"/><path d="M142-52V0h-30v-52H7v-23l115-162h20v160h32v25h-32zm-30-25l-1-119L27-77h85" id="E"/><use transform="matrix(0.07407407407407408,0,0,0.07407407407407408,0,0)" xlink:href="#E" id="c"/><path d="M24-231c66-21 156 2 128 81C132-92 78-66 39-27h121V0H16v-26l59-54c26-25 47-47 47-97 0-48-47-57-81-37l-6 29H24v-46" id="F"/><use transform="matrix(0.07407407407407408,0,0,0.07407407407407408,0,0)" xlink:href="#F" id="d"/><path fill="#0c7cba" d="M925-1365c50 0 101 48 101 99 0 165-53 833-94 1164C923-33 882 0 831 0c-53 0-101-49-101-102 0-145 29-345 45-490-111 9-252 35-425 78-6 58-9 145-9 260 0 35-10 86-22 153C307-33 270 0 220 0c-53 0-103-48-102-101 6-372 65-764 56-1090-3-108 18-171 108-174 55-2 99 41 99 97v544c167-44 304-66 413-66 7-75 10-182 10-321 8-35 11-88 22-155s48-99 99-99" id="G"/><path fill="#0c7cba" d="M369 0C201 0 119-119 119-294c0-119 26-272 77-457 80-290 99-377 125-524 7-13 27-26 60-41 71-33 211-49 419-49 129 0 193 36 193 107 0 50-48 105-99 101-142-10-258-9-397 20-11 59-34 158-69 297 146-57 246-85 301-85 53 0 100 43 100 96 0 43-23 80-73 99-127 49-178 54-389 129-29 119-44 224-44 314 0 58 10 87 30 87 66 0 151-30 256-90s173-91 205-91c50 0 101 49 101 99 0 30-19 57-51 87C794-129 500 0 369 0" id="H"/><path fill="#0c7cba" d="M922-654c-9 182 20 369 29 555 5 90-140 139-183 58-2-3-13-31-31-85-54-160-191-263-414-306-19 75-30 243-58 360-12 50-51 72-98 72-55 0-99-53-99-108 1-366 195-896 360-1117 69-92 141-140 222-140 182 0 273 207 273 621 0 19 1 49-1 90zM724-476v-400c-20-103-13-145-35-225-11-40-25-60-40-60-32 0-83 65-154 195-56 103-99 215-130 336 137 27 256 79 359 154" id="I"/><path fill="#0c7cba" d="M387-1365c369 0 678 217 678 573 0 172-83 346-249 522C647-90 478 0 307 0 194 0 137-80 137-239c0-257 30-558 68-915-53-11-80-43-80-95 0-56 32-93 97-108 26-6 81-8 165-8zm21 204c-15 76-47 491-72 917 0 13 1 27 2 41 116-22 231-92 346-210 120-123 180-241 180-355-1-196-67-277-209-343-74-35-157-50-247-50" id="J"/><g id="e"><use transform="matrix(0.013020833333333334,0,0,0.013020833333333334,0,0)" xlink:href="#G"/><use transform="matrix(0.013020833333333334,0,0,0.013020833333333334,14.869791666666668,0)" xlink:href="#H"/><use transform="matrix(0.013020833333333334,0,0,0.013020833333333334,29.361979166666668,0)" xlink:href="#I"/><use transform="matrix(0.013020833333333334,0,0,0.013020833333333334,43.26822916666667,0)" xlink:href="#J"/></g><path fill="#0c7cba" d="M492-1365c272 0 549 114 549 360 0 140-81 265-244 374-130 87-276 146-439 180-7 56-15 301-32 372-12 53-46 79-94 79-53 0-99-48-99-101 0-201 55-864 50-1044-38-23-57-56-57-99 0-39 24-69 72-90s147-31 294-31zm348 355c0-132-280-161-454-151-1 136-2 303-2 501 100-31 192-72 276-122 120-70 180-146 180-228" id="K"/><use transform="matrix(0.013020833333333334,0,0,0.013020833333333334,0,0)" xlink:href="#K" id="f"/><path fill="#0c7cba" d="M90-239c59 0 76 52 76 120S152 4 89 4C31 4 14-51 14-119c0-67 17-120 76-120zM89-10c45-6 45-58 45-109 0-50 0-101-45-106-45 4-43 57-43 106 0 50-2 104 43 109" id="L"/><use transform="matrix(0.07407407407407408,0,0,0.07407407407407408,0,0)" xlink:href="#L" id="g"/><path d="M759-451c68-46 151 19 151 87 0 27-17 54-48 86C767-182 491 0 329 0 186 0 114-109 114-326c0-169 46-507 46-695 0-139-8-341 120-344 53-2 103 46 101 99-4-2-27 472-40 636-16 198-27 312-27 343 0 57 11 86 32 86 61 0 169-62 325-185 19-16 49-38 88-65" id="M"/><path d="M295-1038c-53 2-99-46-99-99 0-31 18-59 51-87 37-32 224-141 280-141 69 0 104 33 104 99v735c-33 116-21 386-54 459-21 48-54 72-99 72-64 1-108-57-94-125 18-88 24-194 24-317 1 31 2-75 2-317v-328c-50 33-88 49-115 49" id="N"/><g id="h"><use transform="matrix(0.013020833333333334,0,0,0.013020833333333334,0,0)" xlink:href="#M"/><use transform="matrix(0.013020833333333334,0,0,0.013020833333333334,11.927083333333334,0)" xlink:href="#N"/></g><path d="M722-1365c155 0 277 78 276 225 0 91-50 195-151 314-48 56-136 140-262 254-171 154-256 259-256 316 0 37 32 55 96 55 103 0 398-64 478-64 48 0 94 55 94 103 0 50-33 87-101 99C773-42 564-1 425 0 221 0 119-76 119-227c0-93 56-204 169-333 46-52 140-144 284-277s216-227 216-283c0-29-23-44-69-44-62 0-148 26-258 77-11 52-41 78-92 78-58 0-103-42-103-100 0-156 283-256 456-256" id="O"/><g id="i"><use transform="matrix(0.013020833333333334,0,0,0.013020833333333334,0,0)" xlink:href="#M"/><use transform="matrix(0.013020833333333334,0,0,0.013020833333333334,11.927083333333334,0)" xlink:href="#O"/></g><path d="M925-1365c50 0 101 48 101 99 0 165-53 833-94 1164C923-33 882 0 831 0c-53 0-101-49-101-102 0-145 29-345 45-490-111 9-252 35-425 78-6 58-9 145-9 260 0 35-10 86-22 153C307-33 270 0 220 0c-53 0-103-48-102-101 6-372 65-764 56-1090-3-108 18-171 108-174 55-2 99 41 99 97v544c167-44 304-66 413-66 7-75 10-182 10-321 8-35 11-88 22-155s48-99 99-99" id="P"/><path d="M369 0C201 0 119-119 119-294c0-119 26-272 77-457 80-290 99-377 125-524 7-13 27-26 60-41 71-33 211-49 419-49 129 0 193 36 193 107 0 50-48 105-99 101-142-10-258-9-397 20-11 59-34 158-69 297 146-57 246-85 301-85 53 0 100 43 100 96 0 43-23 80-73 99-127 49-178 54-389 129-29 119-44 224-44 314 0 58 10 87 30 87 66 0 151-30 256-90s173-91 205-91c50 0 101 49 101 99 0 30-19 57-51 87C794-129 500 0 369 0" id="Q"/><path d="M922-654c-9 182 20 369 29 555 5 90-140 139-183 58-2-3-13-31-31-85-54-160-191-263-414-306-19 75-30 243-58 360-12 50-51 72-98 72-55 0-99-53-99-108 1-366 195-896 360-1117 69-92 141-140 222-140 182 0 273 207 273 621 0 19 1 49-1 90zM724-476v-400c-20-103-13-145-35-225-11-40-25-60-40-60-32 0-83 65-154 195-56 103-99 215-130 336 137 27 256 79 359 154" id="R"/><path d="M387-1365c369 0 678 217 678 573 0 172-83 346-249 522C647-90 478 0 307 0 194 0 137-80 137-239c0-257 30-558 68-915-53-11-80-43-80-95 0-56 32-93 97-108 26-6 81-8 165-8zm21 204c-15 76-47 491-72 917 0 13 1 27 2 41 116-22 231-92 346-210 120-123 180-241 180-355-1-196-67-277-209-343-74-35-157-50-247-50" id="S"/><g id="j"><use transform="matrix(0.013020833333333334,0,0,0.013020833333333334,0,0)" xlink:href="#P"/><use transform="matrix(0.013020833333333334,0,0,0.013020833333333334,14.869791666666668,0)" xlink:href="#Q"/><use transform="matrix(0.013020833333333334,0,0,0.013020833333333334,29.361979166666668,0)" xlink:href="#R"/><use transform="matrix(0.013020833333333334,0,0,0.013020833333333334,43.26822916666667,0)" xlink:href="#S"/></g><path d="M90-239c59 0 76 52 76 120S152 4 89 4C31 4 14-51 14-119c0-67 17-120 76-120zM89-10c45-6 45-58 45-109 0-50 0-101-45-106-45 4-43 57-43 106 0 50-2 104 43 109" id="T"/><use transform="matrix(0.07407407407407408,0,0,0.07407407407407408,0,0)" xlink:href="#T" id="k"/><path fill="#0c7cba" d="M759-451c68-46 151 19 151 87 0 27-17 54-48 86C767-182 491 0 329 0 186 0 114-109 114-326c0-169 46-507 46-695 0-139-8-341 120-344 53-2 103 46 101 99-4-2-27 472-40 636-16 198-27 312-27 343 0 57 11 86 32 86 61 0 169-62 325-185 19-16 49-38 88-65" id="U"/><path fill="#0c7cba" d="M295-1038c-53 2-99-46-99-99 0-31 18-59 51-87 37-32 224-141 280-141 69 0 104 33 104 99v735c-33 116-21 386-54 459-21 48-54 72-99 72-64 1-108-57-94-125 18-88 24-194 24-317 1 31 2-75 2-317v-328c-50 33-88 49-115 49" id="V"/><g id="l"><use transform="matrix(0.013020833333333334,0,0,0.013020833333333334,0,0)" xlink:href="#U"/><use transform="matrix(0.013020833333333334,0,0,0.013020833333333334,11.927083333333334,0)" xlink:href="#V"/></g><path fill="#0c7cba" d="M1405 63c250 34 284-114 279-324l131 51c-40 176-23 404-256 393-216-6-529 74-529-159v-1570h131v711c176-114 364-256 523-410l85 97c-193 159-393 319-609 449v677c0 114 131 68 245 85zM119 74l239-51v-1576h131v563h444v119H489V-6l444-119 6 114C694 74 404 131 148 205" id="W"/><use transform="matrix(0.013020833333333334,0,0,0.013020833333333334,0,0)" xlink:href="#W" id="m"/><path fill="#0c7cba" d="M569-558c11-148-34-364 34-455-17-40-114-23-142-46 28 108 11 353 17 501H228c51-176 102-370 154-586h398c46 6 57-51 11-63-46-28-80-51-102-85l-85 91H394c23-91 23-210 91-250-23-23-74-23-114-46l-68 296H104l28 57h159C228-894 166-706 98-507c11 46 108 63 119 0h262v341C360-126 200-81 81-69c28 28 51 119 91 154C206 11 371-29 479-80c6 125-11 273 6 387 28-17 80-11 85-46v-387c91-46 193-102 307-171-102-6-222 85-307 102v-313h245c68-63-80-85-108-148-46 28-57 97-137 97zm603-876c125 74 159 159 228 228 57-6 63-108 11-142-34-34-114-68-233-108zm586 154l-97 102H882l34 57h944c46 0 57-57 6-63-46-28-80-63-108-97zm-609 222c-40 131-137 284-290 466l17 17c114-97 233-228 358-393 40-11 74-34 11-51-34-11-63-17-97-40zm376 11l-11 17c119 119 205 216 250 302 28 57 46 80 63 80 68-6 57-102 11-154-40-40-137-131-313-245zM1354-51c97 125 233 239 381 302 46-51 137-46 188-74-233-51-387-154-512-296 85-108 154-256 228-455 11-34 102-51 23-85-28-11-57-40-97-74-74 273-119 404-210 546-114-148-165-313-222-518h-23c46 279 91 427 199 586-148 182-341 302-580 410l6 17c262-85 461-216 620-358" id="X"/><use transform="matrix(0.013020833333333334,0,0,0.013020833333333334,0,0)" xlink:href="#X" id="n"/><path fill="#0c7cba" d="M137-119c0-58 89-135 145-135 71 0 107 42 107 126C389-63 336 0 270 0c-63 0-133-55-133-119" id="Y"/><path fill="#0c7cba" d="M925-1365c52 0 103 46 101 97 0 23-38 113-113 270-125 261-227 519-304 774-21 71-38 117-49 139-29 57-63 85-104 85-109-1-156-321-181-456-30-165-184-659-203-805-7-52 44-104 97-104 40 0 72 25 99 73 46 84 66 250 92 370 23 106 68 262 121 471 71-167 173-418 306-754 20-51 35-86 46-104 25-37 55-56 92-56" id="Z"/><g id="o"><use transform="matrix(0.013020833333333334,0,0,0.013020833333333334,0,0)" xlink:href="#U"/><use transform="matrix(0.013020833333333334,0,0,0.013020833333333334,11.927083333333334,0)" xlink:href="#V"/><use transform="matrix(0.013020833333333334,0,0,0.013020833333333334,22.864583333333336,0)" xlink:href="#Y"/><use transform="matrix(0.013020833333333334,0,0,0.013020833333333334,30.1953125,0)" xlink:href="#Z"/><use transform="matrix(0.013020833333333334,0,0,0.013020833333333334,42.04427083333334,0)" xlink:href="#I"/><use transform="matrix(0.013020833333333334,0,0,0.013020833333333334,55.95052083333335,0)" xlink:href="#U"/></g><path fill="#0c7cba" d="M1047 307c307-91 284-284 381-592h427c57 0 57-51 6-68-57-34-97-68-125-108l-102 119h-193c40-80 0-262 97-302 57-23 68-40 23-68-46-28-80-68-102-114l-80 80H520l57-364h1098c46 0 40-46 6-63-51-23-97-57-131-108l-108 119H589c17-63 0-159 51-182 57-28 63-57-11-68-28-11-63-34-108-57-17 193-63 495-142 899 11 17 97 63 108 11l23-137h882c-23 131-40 250-63 353H100l28 57h1189c-97 353-74 501-478 421l-6 11c108 40 171 85 216 159" id="aa"/><use transform="matrix(0.013020833333333334,0,0,0.013020833333333334,0,0)" xlink:href="#aa" id="p"/><path fill="#0c7cba" d="M722-1365c155 0 277 78 276 225 0 91-50 195-151 314-48 56-136 140-262 254-171 154-256 259-256 316 0 37 32 55 96 55 103 0 398-64 478-64 48 0 94 55 94 103 0 50-33 87-101 99C773-42 564-1 425 0 221 0 119-76 119-227c0-93 56-204 169-333 46-52 140-144 284-277s216-227 216-283c0-29-23-44-69-44-62 0-148 26-258 77-11 52-41 78-92 78-58 0-103-42-103-100 0-156 283-256 456-256" id="ab"/><g id="q"><use transform="matrix(0.013020833333333334,0,0,0.013020833333333334,0,0)" xlink:href="#U"/><use transform="matrix(0.013020833333333334,0,0,0.013020833333333334,11.927083333333334,0)" xlink:href="#ab"/><use transform="matrix(0.013020833333333334,0,0,0.013020833333333334,27.239583333333336,0)" xlink:href="#Y"/><use transform="matrix(0.013020833333333334,0,0,0.013020833333333334,34.5703125,0)" xlink:href="#Z"/><use transform="matrix(0.013020833333333334,0,0,0.013020833333333334,46.41927083333333,0)" xlink:href="#I"/><use transform="matrix(0.013020833333333334,0,0,0.013020833333333334,60.32552083333332,0)" xlink:href="#U"/></g><use transform="matrix(0.07407407407407408,0,0,0.07407407407407408,0,0)" xlink:href="#C" id="r"/><use transform="matrix(0.07407407407407408,0,0,0.07407407407407408,0,0)" xlink:href="#D" id="s"/><use transform="matrix(0.07407407407407408,0,0,0.07407407407407408,0,0)" xlink:href="#E" id="t"/><use transform="matrix(0.07407407407407408,0,0,0.07407407407407408,0,0)" xlink:href="#F" id="u"/><g id="v"><use transform="matrix(0.013020833333333334,0,0,0.013020833333333334,0,0)" xlink:href="#M"/><use transform="matrix(0.013020833333333334,0,0,0.013020833333333334,11.927083333333334,0)" xlink:href="#N"/></g><g id="w"><use transform="matrix(0.013020833333333334,0,0,0.013020833333333334,0,0)" xlink:href="#U"/><use transform="matrix(0.013020833333333334,0,0,0.013020833333333334,11.927083333333334,0)" xlink:href="#ab"/></g><path d="M492-1365c272 0 549 114 549 360 0 140-81 265-244 374-130 87-276 146-439 180-7 56-15 301-32 372-12 53-46 79-94 79-53 0-99-48-99-101 0-201 55-864 50-1044-38-23-57-56-57-99 0-39 24-69 72-90s147-31 294-31zm348 355c0-132-280-161-454-151-1 136-2 303-2 501 100-31 192-72 276-122 120-70 180-146 180-228" id="ac"/><use transform="matrix(0.013020833333333334,0,0,0.013020833333333334,0,0)" xlink:href="#ac" id="x"/><g id="y"><use transform="matrix(0.013020833333333334,0,0,0.013020833333333334,0,0)" xlink:href="#M"/><use transform="matrix(0.013020833333333334,0,0,0.013020833333333334,11.927083333333334,0)" xlink:href="#N"/></g><g id="z"><use transform="matrix(0.013020833333333334,0,0,0.013020833333333334,0,0)" xlink:href="#M"/><use transform="matrix(0.013020833333333334,0,0,0.013020833333333334,11.927083333333334,0)" xlink:href="#O"/></g><path d="M203-222l-32-4v-10h81v10l-31 4V0h-17L59-212v198l32 5v9H10v-9l31-5v-208l-31-4v-10h72L203-61v-161" id="ad"/><path d="M90-170c52 0 76 32 76 87 0 54-24 87-77 87-51 0-75-34-75-87 0-54 24-87 76-87zM89-10c39 0 46-35 46-73 0-39-7-73-46-73-39 1-44 34-44 73s6 72 44 73" id="ae"/><path d="M125-118c4-37-41-34-68-26v132l23 4v8H8C5-13 21-9 28-12v-141c-7-3-23 1-20-12h47l2 13c31-23 98-29 98 31v109c7 3 23-1 20 12h-72v-8l22-4v-106" id="af"/><path d="M84-170c49 0 66 33 63 87H46c-8 60 38 80 95 63v10C128-2 108 4 88 4 34 4 14-29 14-84c-1-54 22-86 70-86zm33 73c12-57-57-82-69-24-1 7-2 15-2 24h71" id="ag"/><g id="A"><use transform="matrix(0.05555555555555555,0,0,0.05555555555555555,0,0)" xlink:href="#ad"/><use transform="matrix(0.05555555555555555,0,0,0.05555555555555555,14.388888888888888,0)" xlink:href="#ae"/><use transform="matrix(0.05555555555555555,0,0,0.05555555555555555,24.388888888888886,0)" xlink:href="#af"/><use transform="matrix(0.05555555555555555,0,0,0.05555555555555555,34.388888888888886,0)" xlink:href="#ag"/></g><g id="B"><use transform="matrix(0.05555555555555555,0,0,0.05555555555555555,0,0)" xlink:href="#ad"/><use transform="matrix(0.05555555555555555,0,0,0.05555555555555555,14.388888888888888,0)" xlink:href="#ae"/><use transform="matrix(0.05555555555555555,0,0,0.05555555555555555,24.388888888888886,0)" xlink:href="#af"/><use transform="matrix(0.05555555555555555,0,0,0.05555555555555555,34.388888888888886,0)" xlink:href="#ag"/></g></defs></g></svg>