<svg xmlns="http://www.w3.org/2000/svg" xmlns:xlink="http://www.w3.org/1999/xlink" xmlns:lucid="lucid" width="1729.24" height="2446.67"><g transform="translate(0 0)" lucid:page-tab-id="0_0"><path d="M0 0h1729.24v2446.67H0z" fill="#fff"/><path d="M60 49h860v47.67H60z" fill="none"/><use xlink:href="#a" transform="matrix(1,0,0,1,60,49) translate(0 31.39622641509434)"/><use xlink:href="#b" transform="matrix(1,0,0,1,60,49) translate(61.635220125786155 31.39622641509434)"/><use xlink:href="#c" transform="matrix(1,0,0,1,60,49) translate(215.51781970649893 31.39622641509434)"/><use xlink:href="#d" transform="matrix(1,0,0,1,60,49) translate(412.33962264150944 31.39622641509434)"/><use xlink:href="#e" transform="matrix(1,0,0,1,60,49) translate(504.5870020964361 31.39622641509434)"/><use xlink:href="#f" transform="matrix(1,0,0,1,60,49) translate(631.6582809224319 31.39622641509434)"/><path d="M60.9 96.67l1487.1-.1" stroke="#999" stroke-width="2" fill="none"/><path d="M60.9 96.67H60v-1h.9zM1548 96.58v-1z" fill="#999"/><path d="M860 49h688v48H860z" fill="none"/><use xlink:href="#g" transform="matrix(1,0,0,1,860,49) translate(436.7654320987679 28.4444444444444)"/><use xlink:href="#h" transform="matrix(1,0,0,1,860,49) translate(470.03703703703917 28.4444444444444)"/><use xlink:href="#i" transform="matrix(1,0,0,1,860,49) translate(541.5802469135817 28.4444444444444)"/><use xlink:href="#j" transform="matrix(1,0,0,1,860,49) translate(565.8395061728407 28.4444444444444)"/><use xlink:href="#k" transform="matrix(1,0,0,1,860,49) translate(613.9259259259267 28.4444444444444)"/><use xlink:href="#l" transform="matrix(1,0,0,1,860,49) translate(638.6172839506178 28.4444444444444)"/><path d="M610.18 229.3c0 13.62-12.7 24.66-28.36 24.66-15.67 0-28.37-11.04-28.37-24.65 0-13.6 12.7-24.65 28.37-24.65 15.66 0 28.36 11.04 28.36 24.66z" stroke="#000" stroke-width="2" fill="#fff"/><use xlink:href="#m" transform="matrix(1,0,0,1,558.4545454545454,209.65256910928704) translate(14.254716981132077 29.584905660377355)"/><path d="M611.2 229.3h50.65" stroke="#000" stroke-width="2" fill="none"/><path d="M611.2 230.3h-1.1l.08-1-.08-1h1.1zM676.85 229.3l-14.26 4.64v-9.27z"/><path d="M680.1 229.3l-18.5 6.02V223.3zm-16.5 3.26l10.02-3.25-10.03-3.25z"/><path d="M737.82 229.3c0 13.62-12.7 24.66-28.37 24.66-15.66 0-28.36-11.04-28.36-24.65 0-13.6 12.7-24.65 28.35-24.65 15.67 0 28.37 11.04 28.37 24.66z" stroke="#000" stroke-width="2" fill="#fff"/><use xlink:href="#n" transform="matrix(1,0,0,1,686.0909090909091,209.65256910928704) translate(14.254716981132077 29.584905660377355)"/><path d="M738.82 229.3h53.2" stroke="#000" stroke-width="2" fill="none"/><path d="M738.82 230.3h-1.1l.1-1-.08-1h1.08zM807.03 229.3l-14.27 4.64v-9.27z"/><path d="M810.27 229.3l-18.5 6.02V223.3zm-16.5 3.26l10.02-3.25-10.04-3.25z"/><path d="M998.17 229.3c0 13.62-12.7 24.66-28.36 24.66-15.65 0-28.35-11.04-28.35-24.65 0-13.6 12.7-24.65 28.36-24.65 15.68 0 28.37 11.04 28.37 24.66z" stroke="#000" stroke-width="2" fill="#fff"/><use xlink:href="#n" transform="matrix(1,0,0,1,946.4476843910805,209.65256910928704) translate(14.254716981132077 29.584905660377355)"/><path d="M999.18 229.3h45.58" stroke="#000" stroke-width="2" fill="none"/><path d="M999.18 230.3h-1.1l.1-1-.1-1h1.1zM1059.76 229.3l-14.27 4.64v-9.27z"/><path d="M1063 229.3l-18.5 6.02V223.3zm-16.5 3.26l10.02-3.25-10.03-3.25z"/><path d="M868 229.3c0 13.62-12.7 24.66-28.37 24.66-15.66 0-28.36-11.04-28.36-24.65 0-13.6 12.7-24.65 28.36-24.65 15.67 0 28.37 11.04 28.37 24.66z" stroke="#000" stroke-width="2" fill="#fff"/><use xlink:href="#n" transform="matrix(1,0,0,1,816.2692967409947,209.65256910928704) translate(14.254716981132077 29.584905660377355)"/><path d="M869 229.3h53.2" stroke="#000" stroke-width="2" fill="none"/><path d="M869 230.3h-1.1l.1-1-.08-1H869zM937.2 229.3l-14.26 4.64v-9.27z"/><path d="M940.44 229.3l-18.5 6.02V223.3zm-16.5 3.26l10.03-3.25-10.03-3.25z"/><path d="M1120.73 229.3c0 13.62-12.7 24.66-28.37 24.66-15.66 0-28.36-11.04-28.36-24.65 0-13.6 12.7-24.65 28.36-24.65 15.67 0 28.37 11.04 28.37 24.66z" stroke="#000" stroke-width="2" fill="#fff"/><use xlink:href="#o" transform="matrix(1,0,0,1,1069.0000000000002,209.65256910928704) translate(14.254716981132077 29.584905660377355)"/><path d="M440 210.82h170.18v36.97H440z" stroke="#000" stroke-opacity="0" stroke-width="2" fill="#fff" fill-opacity="0"/><use xlink:href="#p" transform="matrix(1,0,0,1,445.00000000000006,215.8157113866088) translate(53.41474493361286 23.0104821802935)"/><path d="M468.36 180h170.2v36.98h-170.2z" stroke="#000" stroke-opacity="0" stroke-width="2" fill="#fff" fill-opacity="0"/><use xlink:href="#q" transform="matrix(1,0,0,1,473.36363636363643,185) translate(73.30922431865828 23.0104821802935)"/><path d="M610.18 340.24c0 13.62-12.7 24.65-28.36 24.65-15.67 0-28.37-11.04-28.37-24.66 0-13.6 12.7-24.65 28.37-24.65 15.66 0 28.36 11.03 28.36 24.64z" stroke="#000" stroke-width="2" fill="#fff"/><use xlink:href="#m" transform="matrix(1,0,0,1,558.4545454545454,320.5891301010788) translate(14.254716981132077 29.584905660377355)"/><path d="M611.2 340.24h50.65" stroke="#000" stroke-width="2" fill="none"/><path d="M611.2 341.24h-1.1l.08-1-.08-1h1.1zM676.85 340.24l-14.26 4.64v-9.27z"/><path d="M680.1 340.24l-18.5 6v-12zm-16.5 3.26l10.02-3.26-10.03-3.26z"/><path d="M737.82 340.24c0 13.62-12.7 24.65-28.37 24.65-15.66 0-28.36-11.04-28.36-24.66 0-13.6 12.7-24.65 28.35-24.65 15.67 0 28.37 11.03 28.37 24.64z" stroke="#000" stroke-width="2" fill="#fff"/><use xlink:href="#n" transform="matrix(1,0,0,1,686.0909090909091,320.5891301010788) translate(14.254716981132077 29.584905660377355)"/><path d="M738.82 340.24h53.2" stroke="#000" stroke-width="2" fill="none"/><path d="M738.82 341.24h-1.1l.1-1-.08-1h1.08zM807.03 340.24l-14.27 4.64v-9.27z"/><path d="M810.27 340.24l-18.5 6v-12zm-16.5 3.26l10.02-3.26-10.04-3.26z"/><path d="M998.17 340.24c0 13.62-12.7 24.65-28.36 24.65-15.65 0-28.35-11.04-28.35-24.66 0-13.6 12.7-24.65 28.36-24.65 15.68 0 28.37 11.03 28.37 24.64z" stroke="#000" stroke-width="2" fill="#fff"/><use xlink:href="#n" transform="matrix(1,0,0,1,946.4476843910805,320.5891301010788) translate(14.254716981132077 29.584905660377355)"/><path d="M999.18 340.24h45.58" stroke="#000" stroke-width="2" fill="none"/><path d="M999.18 341.24h-1.1l.1-1-.1-1h1.1zM1059.76 340.24l-14.27 4.64v-9.27z"/><path d="M1063 340.24l-18.5 6v-12zm-16.5 3.26l10.02-3.26-10.03-3.26z"/><path d="M868 340.24c0 13.62-12.7 24.65-28.37 24.65-15.66 0-28.36-11.04-28.36-24.66 0-13.6 12.7-24.65 28.36-24.65 15.67 0 28.37 11.03 28.37 24.64z" stroke="#000" stroke-width="2" fill="#fff"/><use xlink:href="#n" transform="matrix(1,0,0,1,816.2692967409947,320.5891301010788) translate(14.254716981132077 29.584905660377355)"/><path d="M869 340.24h53.2" stroke="#000" stroke-width="2" fill="none"/><path d="M869 341.24h-1.1l.1-1-.08-1H869zM937.2 340.24l-14.26 4.64v-9.27z"/><path d="M940.44 340.24l-18.5 6v-12zm-16.5 3.26l10.03-3.26-10.03-3.26z"/><path d="M1120.73 340.24c0 13.62-12.7 24.65-28.37 24.65-15.66 0-28.36-11.04-28.36-24.66 0-13.6 12.7-24.65 28.36-24.65 15.67 0 28.37 11.03 28.37 24.64z" stroke="#000" stroke-width="2" fill="#fff"/><use xlink:href="#o" transform="matrix(1,0,0,1,1069.0000000000002,320.5891301010788) translate(14.254716981132077 29.584905660377355)"/><path d="M440 321.75h170.18v36.98H440z" stroke="#000" stroke-opacity="0" stroke-width="2" fill="#fff" fill-opacity="0"/><use xlink:href="#p" transform="matrix(1,0,0,1,445.00000000000006,326.75227237840056) translate(53.41474493361286 23.0104821802935)"/><path d="M596 290.94h170.18v36.98H596z" stroke="#000" stroke-opacity="0" stroke-width="2" fill="#fff" fill-opacity="0"/><use xlink:href="#r" transform="matrix(1,0,0,1,601,295.9365609917917) translate(73.30922431865828 23.0104821802935)"/><path d="M610.18 488.16c0 13.6-12.7 24.65-28.36 24.65-15.67 0-28.37-11.03-28.37-24.64 0-13.62 12.7-24.66 28.37-24.66 15.66 0 28.36 11.04 28.36 24.66z" stroke="#000" stroke-width="2" fill="#fff"/><use xlink:href="#m" transform="matrix(1,0,0,1,558.4545454545454,468.50454475680107) translate(14.254716981132077 29.584905660377355)"/><path d="M611.2 488.16h50.65" stroke="#000" stroke-width="2" fill="none"/><path d="M611.2 489.16h-1.1l.08-1-.08-1h1.1zM676.85 488.16l-14.26 4.63v-9.28z"/><path d="M680.1 488.16l-18.5 6v-12zm-16.5 3.26l10.02-3.26-10.03-3.26z"/><path d="M737.82 488.16c0 13.6-12.7 24.65-28.37 24.65-15.66 0-28.36-11.03-28.36-24.64 0-13.62 12.7-24.66 28.35-24.66 15.67 0 28.37 11.04 28.37 24.66z" stroke="#000" stroke-width="2" fill="#fff"/><use xlink:href="#n" transform="matrix(1,0,0,1,686.0909090909091,468.50454475680107) translate(14.254716981132077 29.584905660377355)"/><path d="M998.17 488.16c0 13.6-12.7 24.65-28.36 24.65-15.65 0-28.35-11.03-28.35-24.64 0-13.62 12.7-24.66 28.36-24.66 15.68 0 28.37 11.04 28.37 24.66z" stroke="#000" stroke-width="2" fill="#fff"/><use xlink:href="#n" transform="matrix(1,0,0,1,946.4476843910805,468.50454475680107) translate(14.254716981132077 29.584905660377355)"/><path d="M999.18 488.16h45.58" stroke="#000" stroke-width="2" fill="none"/><path d="M999.18 489.16h-1.1l.1-1-.1-1h1.1zM1059.76 488.16l-14.27 4.63v-9.28z"/><path d="M1063 488.16l-18.5 6v-12zm-16.5 3.26l10.02-3.26-10.03-3.26z"/><path d="M1120.73 488.16c0 13.6-12.7 24.65-28.37 24.65-15.66 0-28.36-11.03-28.36-24.64 0-13.62 12.7-24.66 28.36-24.66 15.67 0 28.37 11.04 28.37 24.66z" stroke="#000" stroke-width="2" fill="#fff"/><use xlink:href="#o" transform="matrix(1,0,0,1,1069.0000000000002,468.50454475680107) translate(14.254716981132077 29.584905660377355)"/><path d="M440 469.67h170.18v36.98H440z" stroke="#000" stroke-opacity="0" stroke-width="2" fill="#fff" fill-opacity="0"/><use xlink:href="#p" transform="matrix(1,0,0,1,445.00000000000006,474.6676870341228) translate(53.41474493361286 23.0104821802935)"/><path d="M596 438.85h170.18v36.98H596z" stroke="#000" stroke-opacity="0" stroke-width="2" fill="#fff" fill-opacity="0"/><use xlink:href="#q" transform="matrix(1,0,0,1,601,443.85197564751394) translate(73.30922431865828 23.0104821802935)"/><path d="M709.45 462.5l.15-7.32.35-5.66.47-4.52.55-3.72.6-3.12.62-2.67.64-2.34.66-2.04.68-1.82.68-1.63.7-1.47.7-1.35.72-1.25.73-1.14.75-1.07.76-1 .8-.95.8-.9.8-.84.87-.8.9-.76.92-.74.97-.7 1.03-.7 1.1-.66 1.17-.64 1.26-.63 1.36-.6 1.5-.6 1.64-.57 1.84-.55 2.1-.54 2.4-.5 2.85-.48 3.47-.44 4.4-.36 6.05-.25 9.8.02 74.2 2.64 30.34-.68 48.4-2.03 7.02.14 4.8.3 3.66.37 2.94.44 2.46.46 2.1.5 1.86.5 1.64.55 1.48.54 1.34.56 1.24.58 1.15.6 1.06.62 1 .64.95.66.92.68.86.72.83.75.8.78.8.83.74.87.74.93.72 1 .7 1.05.7 1.16.7 1.25.66 1.38.68 1.5.66 1.7.66 1.87.64 2.15.64 2.47.6 2.9.6 3.42.28 2.3" stroke="#19967d" stroke-width="2" fill="none"/><path d="M710.45 462.55l-.05 1.04-.95-.1-1.05.1.06-1.15zM969.63 459.27l-5.4-14 9.26-.5z" fill="#19967d"/><path d="M969.8 462.5l-7-18.15 12-.65zm-4.14-16.3l3.8 9.84 2.7-10.2z" fill="#19967d"/><path d="M868.3 488.16c0 13.6-12.7 24.65-28.37 24.65-15.67 0-28.37-11.03-28.37-24.64 0-13.62 12.7-24.66 28.37-24.66 15.66 0 28.36 11.04 28.36 24.66z" stroke="#000" stroke-width="2" fill="#fff"/><use xlink:href="#n" transform="matrix(1,0,0,1,816.5636363636364,468.50454475680107) translate(14.254716981132077 29.584905660377355)"/><path d="M869.3 488.16h53.5" stroke="#000" stroke-width="2" fill="none"/><path d="M869.3 489.16h-1.1l.1-1-.1-1h1.1z"/><path d="M937.8 488.16l-14.27 4.63v-9.28z" stroke="#000" stroke-width="2"/><path d="M610.18 628.8c0 13.6-12.7 24.65-28.36 24.65-15.67 0-28.37-11.04-28.37-24.65 0-13.62 12.7-24.66 28.37-24.66 15.66 0 28.36 11.04 28.36 24.66z" stroke="#000" stroke-width="2" fill="#fff"/><use xlink:href="#m" transform="matrix(1,0,0,1,558.4545454545454,609.1438660470947) translate(14.254716981132077 29.584905660377355)"/><path d="M611.2 628.8h50.65" stroke="#000" stroke-width="2" fill="none"/><path d="M611.2 629.8h-1.1l.08-1-.08-1h1.1zM676.85 628.8l-14.26 4.63v-9.27z"/><path d="M680.1 628.8l-18.5 6V622.8zm-16.5 3.26l10.02-3.26-10.03-3.26z"/><path d="M737.82 628.8c0 13.6-12.7 24.65-28.37 24.65-15.66 0-28.36-11.04-28.36-24.65 0-13.62 12.7-24.66 28.35-24.66 15.67 0 28.37 11.04 28.37 24.66z" stroke="#000" stroke-width="2" fill="#fff"/><use xlink:href="#n" transform="matrix(1,0,0,1,686.0909090909091,609.1438660470947) translate(14.254716981132077 29.584905660377355)"/><path d="M998.17 628.8c0 13.6-12.7 24.65-28.36 24.65-15.65 0-28.35-11.04-28.35-24.65 0-13.62 12.7-24.66 28.36-24.66 15.68 0 28.37 11.04 28.37 24.66z" stroke="#000" stroke-width="2" fill="#fff"/><use xlink:href="#n" transform="matrix(1,0,0,1,946.4476843910805,609.1438660470947) translate(14.254716981132077 29.584905660377355)"/><path d="M999.18 628.8h45.58" stroke="#000" stroke-width="2" fill="none"/><path d="M999.18 629.8h-1.1l.1-1-.1-1h1.1zM1059.76 628.8l-14.27 4.63v-9.27z"/><path d="M1063 628.8l-18.5 6V622.8zm-16.5 3.26l10.02-3.26-10.03-3.26z"/><path d="M1120.73 628.8c0 13.6-12.7 24.65-28.37 24.65-15.66 0-28.36-11.04-28.36-24.65 0-13.62 12.7-24.66 28.36-24.66 15.67 0 28.37 11.04 28.37 24.66z" stroke="#000" stroke-width="2" fill="#fff"/><use xlink:href="#o" transform="matrix(1,0,0,1,1069.0000000000002,609.1438660470947) translate(14.254716981132077 29.584905660377355)"/><path d="M440 610.3h170.18v37H440z" stroke="#000" stroke-opacity="0" stroke-width="2" fill="#fff" fill-opacity="0"/><use xlink:href="#p" transform="matrix(1,0,0,1,445.00000000000006,615.3070083244164) translate(53.41474493361286 23.0104821802935)"/><path d="M596 579.5h170.18v36.97H596z" stroke="#000" stroke-opacity="0" stroke-width="2" fill="#fff" fill-opacity="0"/><use xlink:href="#q" transform="matrix(1,0,0,1,601,584.4912969378075) translate(73.30922431865828 23.0104821802935)"/><path d="M709.45 603.14l.06-2.82.18-2.6.25-2.4.33-2.25.4-2.1.47-1.98.52-1.9.58-1.77.63-1.7.68-1.63.74-1.57.8-1.5.84-1.47.9-1.42.96-1.38 1.03-1.36 1.1-1.32 1.18-1.3 1.26-1.3 1.35-1.27 1.45-1.24 1.58-1.25 1.7-1.24 1.88-1.24 2.06-1.24 2.25-1.24 2.5-1.24 2.8-1.24 3.14-1.24 3.57-1.24 4.1-1.23 4.75-1.22 5.62-1.2 6.77-1.13 8.38-1.05 10.83-.9 15-.6 24.95.05 89.6 2.75 37.2-.9 57.33-2 13.17.24 9.03.55 6.86.72 5.5.8 4.56.87 3.9.9 3.36.95 2.95.95 2.63.98 2.36 1 2.14 1 1.94 1 1.8 1.04 1.64 1.05 1.54 1.06 1.43 1.1 1.33 1.1 1.26 1.13 1.2 1.17 1.1 1.2 1.07 1.23 1.03 1.27.96 1.33.9 1.37.88 1.45.83 1.5.8 1.6.75 1.7.7 1.78.67 1.9.62 2.06.2.82" stroke="#19967d" stroke-width="2" fill="none"/><path d="M710.45 603.26l-.12.96-.88-.08-1.14.1.16-1.23zM1092 599.93l-6.27-13.63 9.2-1.08z" fill="#19967d"/><path d="M1092.36 603.14l-8.12-17.68 11.94-1.4zm-5.15-16l4.4 9.57 2.08-10.33z" fill="#19967d"/><path d="M868.3 628.8c0 13.6-12.7 24.65-28.37 24.65-15.67 0-28.37-11.04-28.37-24.65 0-13.62 12.7-24.66 28.37-24.66 15.66 0 28.36 11.04 28.36 24.66z" stroke="#000" stroke-width="2" fill="#fff"/><use xlink:href="#n" transform="matrix(1,0,0,1,816.5636363636364,609.1438660470947) translate(14.254716981132077 29.584905660377355)"/><path d="M869.3 628.8h52.9" stroke="#000" stroke-width="2" fill="none"/><path d="M869.3 629.8h-1.1l.1-1-.1-1h1.1zM937.2 628.8l-14.26 4.63v-9.27z"/><path d="M940.44 628.8l-18.5 6V622.8zm-16.5 3.26l10.03-3.26-10.03-3.26z"/><path d="M610.18 775.35c0 13.6-12.7 24.65-28.36 24.65-15.67 0-28.37-11.04-28.37-24.65 0-13.62 12.7-24.66 28.37-24.66 15.66 0 28.36 11.03 28.36 24.65z" stroke="#000" stroke-width="2" fill="#fff"/><use xlink:href="#m" transform="matrix(1,0,0,1,558.4545454545454,755.6948617814259) translate(14.254716981132077 29.584905660377355)"/><path d="M611.2 775.35h50.65" stroke="#000" stroke-width="2" fill="none"/><path d="M611.2 776.35h-1.1l.08-1-.08-1h1.1zM676.85 775.35l-14.26 4.63v-9.27z"/><path d="M680.1 775.35l-18.5 6v-12zm-16.5 3.26l10.02-3.25-10.03-3.26z"/><path d="M737.82 775.35c0 13.6-12.7 24.65-28.37 24.65-15.66 0-28.36-11.04-28.36-24.65 0-13.62 12.7-24.66 28.35-24.66 15.67 0 28.37 11.03 28.37 24.65z" stroke="#000" stroke-width="2" fill="#fff"/><use xlink:href="#n" transform="matrix(1,0,0,1,686.0909090909091,755.6948617814259) translate(14.254716981132077 29.584905660377355)"/><path d="M998.17 775.35c0 13.6-12.7 24.65-28.36 24.65-15.65 0-28.35-11.04-28.35-24.65 0-13.62 12.7-24.66 28.36-24.66 15.68 0 28.37 11.03 28.37 24.65z" stroke="#000" stroke-width="2" fill="#fff"/><use xlink:href="#n" transform="matrix(1,0,0,1,946.4476843910805,755.6948617814259) translate(14.254716981132077 29.584905660377355)"/><path d="M999.18 775.35h45.58" stroke="#000" stroke-width="2" fill="none"/><path d="M999.18 776.35h-1.1l.1-1-.1-1h1.1zM1059.76 775.35l-14.27 4.63v-9.27z"/><path d="M1063 775.35l-18.5 6v-12zm-16.5 3.26l10.02-3.25-10.03-3.26z"/><path d="M1120.73 775.35c0 13.6-12.7 24.65-28.37 24.65-15.66 0-28.36-11.04-28.36-24.65 0-13.62 12.7-24.66 28.36-24.66 15.67 0 28.37 11.03 28.37 24.65z" stroke="#000" stroke-width="2" fill="#fff"/><use xlink:href="#o" transform="matrix(1,0,0,1,1069.0000000000002,755.6948617814259) translate(14.254716981132077 29.584905660377355)"/><path d="M440 756.86h170.18v36.98H440z" stroke="#000" stroke-opacity="0" stroke-width="2" fill="#fff" fill-opacity="0"/><use xlink:href="#p" transform="matrix(1,0,0,1,445.00000000000006,761.8580040587476) translate(53.41474493361286 23.0104821802935)"/><path d="M1049.82 756.87H1220v36.98h-170.18z" stroke="#000" stroke-opacity="0" stroke-width="2" fill="#fff" fill-opacity="0"/><use xlink:href="#r" transform="matrix(1,0,0,1,1054.818181818182,761.8701171573167) translate(73.30922431865828 23.0104821802935)"/><path d="M709.45 749.7l.06-2.83.18-2.6.25-2.4.33-2.25.4-2.1.47-1.98.52-1.88.58-1.78.63-1.7.68-1.63.74-1.56.8-1.53.84-1.46.9-1.4.96-1.4 1.03-1.35 1.1-1.32 1.18-1.3 1.26-1.3 1.35-1.26 1.45-1.26 1.58-1.24 1.7-1.25 1.88-1.23 2.06-1.24 2.25-1.24 2.5-1.25 2.8-1.24 3.14-1.23 3.57-1.24 4.1-1.23 4.75-1.22 5.62-1.2 6.77-1.13 8.38-1.05 10.83-.9 15-.6 24.95.05 89.6 2.75 37.2-.9 57.33-2 13.17.24 9.03.56 6.86.72 5.5.8 4.56.87 3.9.9 3.36.94 2.95.96 2.63.98 2.36 1 2.14 1 1.94 1 1.8 1.04 1.64 1.05 1.54 1.07 1.43 1.08 1.33 1.1 1.26 1.14 1.2 1.16 1.1 1.2 1.07 1.23 1.03 1.27.96 1.33.9 1.38.88 1.44.83 1.5.8 1.6.75 1.7.7 1.78.67 1.9.62 2.06.2.83" stroke="#000" stroke-width="2" fill="none"/><path d="M710.45 749.8l-.12.97-.88-.08-1.14.1.16-1.24zM1092 746.48l-6.27-13.63 9.2-1.08z"/><path d="M1092.36 749.7l-8.12-17.7 11.94-1.38zm-5.15-16.02l4.4 9.58 2.08-10.34z"/><path d="M868.3 775.35c0 13.6-12.7 24.65-28.37 24.65-15.67 0-28.37-11.04-28.37-24.65 0-13.62 12.7-24.66 28.37-24.66 15.66 0 28.36 11.03 28.36 24.65z" stroke="#000" stroke-width="2" fill="#fff"/><g><use xlink:href="#n" transform="matrix(1,0,0,1,816.5636363636364,755.6948617814259) translate(14.254716981132077 29.584905660377355)"/></g><path d="M869.3 775.35h52.9" stroke="#000" stroke-width="2" fill="none"/><path d="M869.3 776.35h-1.1l.1-1-.1-1h1.1zM937.2 775.35l-14.26 4.63v-9.27z"/><path d="M940.44 775.35l-18.5 6v-12zm-16.5 3.26l10.03-3.25-10.03-3.26z"/><defs><path fill="#666" d="M138-131c27 9 52 24 51 61 0 53-36 74-89 74S11-19 11-69c0-35 22-54 51-61-78-25-46-121 38-121 51 0 83 19 83 66 0 30-18 49-45 54zm-38-16c24 0 32-13 32-36 1-23-11-34-32-34-22 0-33 12-32 34 0 22 9 36 32 36zm1 116c27 0 37-17 37-43 0-25-13-39-39-39-24 0-37 15-37 40 0 27 11 42 39 42" id="s"/><path fill="#666" d="M128-127c34 4 56 21 59 58 7 91-148 94-172 28-4-9-6-17-7-26l51-5c1 24 16 35 40 36 23 0 39-12 38-36-1-31-31-36-65-34v-40c32 2 59-3 59-33 0-20-13-33-34-33s-33 13-35 32l-50-3c6-44 37-68 86-68 50 0 83 20 83 66 0 35-22 52-53 58" id="t"/><path fill="#666" d="M24 0v-54h51V0H24" id="u"/><g id="a"><use transform="matrix(0.10272536687631026,0,0,0.10272536687631026,0,0)" xlink:href="#s"/><use transform="matrix(0.10272536687631026,0,0,0.10272536687631026,20.545073375262053,0)" xlink:href="#t"/><use transform="matrix(0.10272536687631026,0,0,0.10272536687631026,41.090146750524106,0)" xlink:href="#u"/></g><path fill="#666" d="M240-174c0 40-23 61-54 70L253 0h-59l-57-94H76V0H24v-248c93 4 217-23 216 74zM76-134c48-2 112 12 112-38 0-48-66-32-112-35v73" id="v"/><path fill="#666" d="M185-48c-13 30-37 53-82 52C43 2 14-33 14-96s30-98 90-98c62 0 83 45 84 108H66c0 31 8 55 39 56 18 0 30-7 34-22zm-45-69c5-46-57-63-70-21-2 6-4 13-4 21h74" id="w"/><path fill="#666" d="M220-157c-53 9-28 100-34 157h-49v-107c1-27-5-49-29-50C55-147 81-57 75 0H25l-1-190h47c2 12-1 28 3 38 10-53 101-56 108 0 13-22 24-43 59-42 82 1 51 116 57 194h-49v-107c-1-25-5-48-29-50" id="x"/><path fill="#666" d="M110-194c64 0 96 36 96 99 0 64-35 99-97 99-61 0-95-36-95-99 0-62 34-99 96-99zm-1 164c35 0 45-28 45-65 0-40-10-65-43-65-34 0-45 26-45 65 0 36 10 65 43 65" id="y"/><path fill="#666" d="M128 0H69L1-190h53L99-40l48-150h52" id="z"/><g id="b"><use transform="matrix(0.10272536687631026,0,0,0.10272536687631026,0,0)" xlink:href="#v"/><use transform="matrix(0.10272536687631026,0,0,0.10272536687631026,26.605870020964357,0)" xlink:href="#w"/><use transform="matrix(0.10272536687631026,0,0,0.10272536687631026,47.15094339622641,0)" xlink:href="#x"/><use transform="matrix(0.10272536687631026,0,0,0.10272536687631026,80.0230607966457,0)" xlink:href="#y"/><use transform="matrix(0.10272536687631026,0,0,0.10272536687631026,102.51991614255763,0)" xlink:href="#z"/><use transform="matrix(0.10272536687631026,0,0,0.10272536687631026,123.0649895178197,0)" xlink:href="#w"/></g><path fill="#666" d="M24-248c120-7 223 5 221 122C244-46 201 0 124 0H24v-248zM76-40c74 7 117-18 117-86 0-67-45-88-117-82v168" id="A"/><path fill="#666" d="M85 4C-2 5 27-109 22-190h50c7 57-23 150 33 157 60-5 35-97 40-157h50l1 190h-47c-2-12 1-28-3-38-12 25-28 42-61 42" id="B"/><path fill="#666" d="M135-194c53 0 70 44 70 98 0 56-19 98-73 100-31 1-45-17-59-34 3 33 2 69 2 105H25l-1-265h48c2 10 0 23 3 31 11-24 29-35 60-35zM114-30c33 0 39-31 40-66 0-38-9-64-40-64-56 0-55 130 0 130" id="C"/><path fill="#666" d="M25 0v-261h50V0H25" id="D"/><path fill="#666" d="M25-224v-37h50v37H25zM25 0v-190h50V0H25" id="E"/><path fill="#666" d="M190-63c-7 42-38 67-86 67-59 0-84-38-90-98-12-110 154-137 174-36l-49 2c-2-19-15-32-35-32-30 0-35 28-38 64-6 74 65 87 74 30" id="F"/><path fill="#666" d="M133-34C117-15 103 5 69 4 32 3 11-16 11-54c-1-60 55-63 116-61 1-26-3-47-28-47-18 1-26 9-28 27l-52-2c7-38 36-58 82-57s74 22 75 68l1 82c-1 14 12 18 25 15v27c-30 8-71 5-69-32zm-48 3c29 0 43-24 42-57-32 0-66-3-65 30 0 17 8 27 23 27" id="G"/><path fill="#666" d="M115-3C79 11 28 4 28-45v-112H4v-33h27l15-45h31v45h36v33H77v99c-1 23 16 31 38 25v30" id="H"/><path fill="#666" d="M137-138c1-29-70-34-71-4 15 46 118 7 119 86 1 83-164 76-172 9l43-7c4 19 20 25 44 25 33 8 57-30 24-41C81-84 22-81 20-136c-2-80 154-74 161-7" id="I"/><g id="c"><use transform="matrix(0.10272536687631026,0,0,0.10272536687631026,0,0)" xlink:href="#A"/><use transform="matrix(0.10272536687631026,0,0,0.10272536687631026,26.605870020964357,0)" xlink:href="#B"/><use transform="matrix(0.10272536687631026,0,0,0.10272536687631026,49.1027253668763,0)" xlink:href="#C"/><use transform="matrix(0.10272536687631026,0,0,0.10272536687631026,71.59958071278825,0)" xlink:href="#D"/><use transform="matrix(0.10272536687631026,0,0,0.10272536687631026,81.87211740041928,0)" xlink:href="#E"/><use transform="matrix(0.10272536687631026,0,0,0.10272536687631026,92.14465408805032,0)" xlink:href="#F"/><use transform="matrix(0.10272536687631026,0,0,0.10272536687631026,112.68972746331238,0)" xlink:href="#G"/><use transform="matrix(0.10272536687631026,0,0,0.10272536687631026,133.23480083857442,0)" xlink:href="#H"/><use transform="matrix(0.10272536687631026,0,0,0.10272536687631026,145.45911949685535,0)" xlink:href="#w"/><use transform="matrix(0.10272536687631026,0,0,0.10272536687631026,166.00419287211741,0)" xlink:href="#I"/></g><path fill="#666" d="M121-226c-27-7-43 5-38 36h38v33H83V0H34v-157H6v-33h28c-9-59 32-81 87-68v32" id="J"/><path fill="#666" d="M135-150c-39-12-60 13-60 57V0H25l-1-190h47c2 13-1 29 3 40 6-28 27-53 61-41v41" id="K"/><g id="d"><use transform="matrix(0.10272536687631026,0,0,0.10272536687631026,0,0)" xlink:href="#J"/><use transform="matrix(0.10272536687631026,0,0,0.10272536687631026,12.224318658280922,0)" xlink:href="#K"/><use transform="matrix(0.10272536687631026,0,0,0.10272536687631026,26.605870020964364,0)" xlink:href="#y"/><use transform="matrix(0.10272536687631026,0,0,0.10272536687631026,49.10272536687631,0)" xlink:href="#x"/></g><path fill="#666" d="M169-182c-1-43-94-46-97-3 18 66 151 10 154 114 3 95-165 93-204 36-6-8-10-19-12-30l50-8c3 46 112 56 116 5-17-69-150-10-154-114-4-87 153-88 188-35 5 8 8 18 10 28" id="L"/><path fill="#666" d="M88-194c31-1 46 15 58 34l-1-101h50l1 261h-48c-2-10 0-23-3-31C134-8 116 4 84 4 32 4 16-41 15-95c0-56 19-97 73-99zm17 164c33 0 40-30 41-66 1-37-9-64-41-64s-38 30-39 65c0 43 13 65 39 65" id="M"/><g id="e"><use transform="matrix(0.10272536687631026,0,0,0.10272536687631026,0,0)" xlink:href="#L"/><use transform="matrix(0.10272536687631026,0,0,0.10272536687631026,24.654088050314463,0)" xlink:href="#y"/><use transform="matrix(0.10272536687631026,0,0,0.10272536687631026,47.15094339622641,0)" xlink:href="#K"/><use transform="matrix(0.10272536687631026,0,0,0.10272536687631026,61.53249475890985,0)" xlink:href="#H"/><use transform="matrix(0.10272536687631026,0,0,0.10272536687631026,73.75681341719077,0)" xlink:href="#w"/><use transform="matrix(0.10272536687631026,0,0,0.10272536687631026,94.30188679245282,0)" xlink:href="#M"/></g><path fill="#666" d="M24 0v-248h52v208h133V0H24" id="N"/><g id="f"><use transform="matrix(0.10272536687631026,0,0,0.10272536687631026,0,0)" xlink:href="#N"/><use transform="matrix(0.10272536687631026,0,0,0.10272536687631026,22.496855345911946,0)" xlink:href="#E"/><use transform="matrix(0.10272536687631026,0,0,0.10272536687631026,32.76939203354297,0)" xlink:href="#I"/><use transform="matrix(0.10272536687631026,0,0,0.10272536687631026,53.31446540880503,0)" xlink:href="#H"/></g><path fill="#999" d="M206 0h-36l-40-164L89 0H53L-1-190h32L70-26l43-164h34l41 164 42-164h31" id="O"/><path fill="#999" d="M179-190L93 31C79 59 56 82 12 73V49c39 6 53-20 64-50L1-190h34L92-34l54-156h33" id="P"/><g id="g"><use transform="matrix(0.06172839506172778,0,0,0.06172839506172778,0,0)" xlink:href="#O"/><use transform="matrix(0.06172839506172778,0,0,0.06172839506172778,15.987654320987495,0)" xlink:href="#P"/></g><path fill="#999" d="M141-36C126-15 110 5 73 4 37 3 15-17 15-53c-1-64 63-63 125-63 3-35-9-54-41-54-24 1-41 7-42 31l-33-3c5-37 33-52 76-52 45 0 72 20 72 64v82c-1 20 7 32 28 27v20c-31 9-61-2-59-35zM48-53c0 20 12 33 32 33 41-3 63-29 60-74-43 2-92-5-92 41" id="Q"/><path fill="#999" d="M117-194c89-4 53 116 60 194h-32v-121c0-31-8-49-39-48C34-167 62-67 57 0H25l-1-190h30c1 10-1 24 2 32 11-22 29-35 61-36" id="R"/><path fill="#999" d="M177-190C167-65 218 103 67 71c-23-6-38-20-44-43l32-5c15 47 100 32 89-28v-30C133-14 115 1 83 1 29 1 15-40 15-95c0-56 16-97 71-98 29-1 48 16 59 35 1-10 0-23 2-32h30zM94-22c36 0 50-32 50-73 0-42-14-75-50-75-39 0-46 34-46 75s6 73 46 73" id="S"/><g id="h"><use transform="matrix(0.06172839506172778,0,0,0.06172839506172778,0,0)" xlink:href="#O"/><use transform="matrix(0.06172839506172778,0,0,0.06172839506172778,15.987654320987495,0)" xlink:href="#Q"/><use transform="matrix(0.06172839506172778,0,0,0.06172839506172778,28.33333333333305,0)" xlink:href="#R"/><use transform="matrix(0.06172839506172778,0,0,0.06172839506172778,40.67901234567861,0)" xlink:href="#S"/></g><path fill="#999" d="M32 76v-337h29V76H32" id="T"/><use transform="matrix(0.06172839506172778,0,0,0.06172839506172778,0,0)" xlink:href="#T" id="i"/><path fill="#999" d="M240 0l2-218c-23 76-54 145-80 218h-23L58-218 59 0H30v-248h44l77 211c21-75 51-140 76-211h43V0h-30" id="U"/><g id="j"><use transform="matrix(0.06172839506172778,0,0,0.06172839506172778,0,0)" xlink:href="#U"/><use transform="matrix(0.06172839506172778,0,0,0.06172839506172778,18.456790123456607,0)" xlink:href="#Q"/><use transform="matrix(0.06172839506172778,0,0,0.06172839506172778,30.802469135802163,0)" xlink:href="#P"/></g><path fill="#999" d="M126-127c33 6 58 20 58 59 0 88-139 92-164 29-3-8-5-16-6-25l32-3c6 27 21 44 54 44 32 0 52-15 52-46 0-38-36-46-79-43v-28c39 1 72-4 72-42 0-27-17-43-46-43-28 0-47 15-49 41l-32-3c6-42 35-63 81-64 48-1 79 21 79 65 0 36-21 52-52 59" id="V"/><path fill="#999" d="M68-38c1 34 0 65-14 84H32c9-13 17-26 17-46H33v-38h35" id="W"/><g id="k"><use transform="matrix(0.06172839506172778,0,0,0.06172839506172778,0,0)" xlink:href="#V"/><use transform="matrix(0.06172839506172778,0,0,0.06172839506172778,12.345679012345556,0)" xlink:href="#W"/></g><path fill="#999" d="M101-251c82-7 93 87 43 132L82-64C71-53 59-42 53-27h129V0H18c2-99 128-94 128-182 0-28-16-43-45-43s-46 15-49 41l-32-3c6-41 34-60 81-64" id="X"/><path fill="#999" d="M101-251c68 0 85 55 85 127S166 4 100 4C33 4 14-52 14-124c0-73 17-127 87-127zm-1 229c47 0 54-49 54-102s-4-102-53-102c-51 0-55 48-55 102 0 53 5 102 54 102" id="Y"/><path fill="#999" d="M27 0v-27h64v-190l-56 39v-29l58-41h29v221h61V0H27" id="Z"/><path fill="#999" d="M134-131c28 9 52 24 51 62-1 50-34 73-85 73S17-19 16-69c0-36 21-54 49-61-75-25-45-126 34-121 46 3 78 18 79 63 0 33-17 51-44 57zm-34-11c31 1 46-15 46-44 0-28-17-43-47-42-29 0-46 13-45 42 1 28 16 44 46 44zm1 122c35 0 51-18 51-52 0-30-18-46-53-46-33 0-51 17-51 47 0 34 19 51 53 51" id="aa"/><g id="l"><use transform="matrix(0.06172839506172778,0,0,0.06172839506172778,0,0)" xlink:href="#X"/><use transform="matrix(0.06172839506172778,0,0,0.06172839506172778,12.345679012345556,0)" xlink:href="#Y"/><use transform="matrix(0.06172839506172778,0,0,0.06172839506172778,24.691358024691112,0)" xlink:href="#Z"/><use transform="matrix(0.06172839506172778,0,0,0.06172839506172778,37.03703703703667,0)" xlink:href="#aa"/></g><path d="M110-14l48 5v9H32v-9l48-5v-192l-48 17v-10l69-39h9v224" id="ab"/><use transform="matrix(0.10272536687631026,0,0,0.10272536687631026,0,0)" xlink:href="#ab" id="m"/><path d="M24-231c66-21 156 2 128 81C132-92 78-66 39-27h121V0H16v-26l59-54c26-25 47-47 47-97 0-48-47-57-81-37l-6 29H24v-46" id="ac"/><use transform="matrix(0.10272536687631026,0,0,0.10272536687631026,0,0)" xlink:href="#ac" id="n"/><path d="M134-68c4-52-44-63-88-51H29v-117h119v27H45v75c60-10 121-2 121 64C166 3 87 15 23-4l-2-50h12c1 28 14 43 47 43 39 0 51-20 54-57" id="ad"/><use transform="matrix(0.10272536687631026,0,0,0.10272536687631026,0,0)" xlink:href="#ad" id="o"/><path d="M126-119c3-38-42-31-69-25v132l23 4v8H7v-8l21-4v-226l-24-4v-8h53l-1 98c31-22 99-31 99 31v109c7 3 23-1 20 12h-71v-8l22-4v-107" id="ae"/><path d="M84-170c49 0 66 33 63 87H46c-8 60 38 80 95 63v10C128-2 108 4 88 4 34 4 14-29 14-84c-1-54 22-86 70-86zm33 73c12-57-57-82-69-24-1 7-2 15-2 24h71" id="af"/><path d="M32-163c41-10 102-14 102 39v112c8 3 24-2 21 12h-45l-4-17C83 13 3 13 13-46c-2-50 45-50 92-51 4-36-5-70-42-56-6 2-12 4-16 6-4 7 0 23-15 20v-36zM42-47c0 41 41 33 63 22v-59c-34 1-63-1-63 37" id="ag"/><path d="M13-81c0-71 46-101 114-85l-1-72-28-4v-8h57v238c8 3 24-2 21 12h-47l-2-12C80 23 13-1 13-81zm77-74c-37 1-44 33-45 74 0 38 9 66 45 66 14 0 27-3 36-7v-130c-10-1-24-3-36-3" id="ah"/><g id="p"><use transform="matrix(0.07989750757046354,0,0,0.07989750757046354,0,0)" xlink:href="#ae"/><use transform="matrix(0.07989750757046354,0,0,0.07989750757046354,14.381551362683439,0)" xlink:href="#af"/><use transform="matrix(0.07989750757046354,0,0,0.07989750757046354,27.08525506638714,0)" xlink:href="#ag"/><use transform="matrix(0.07989750757046354,0,0,0.07989750757046354,39.788958770090844,0)" xlink:href="#ah"/></g><path d="M166-85c3 67-44 102-111 85l1 64 29 4v9H6v-9l21-4v-217c-7-3-22 1-19-12h46l1 9c11-8 26-14 45-14 47 2 64 36 66 85zM56-13c53 14 83-14 78-72 7-53-33-79-78-60v132" id="ai"/><use transform="matrix(0.07989750757046354,0,0,0.07989750757046354,0,0)" xlink:href="#ai" id="q"/><path fill="#19967d" d="M166-85c3 67-44 102-111 85l1 64 29 4v9H6v-9l21-4v-217c-7-3-22 1-19-12h46l1 9c11-8 26-14 45-14 47 2 64 36 66 85zM56-13c53 14 83-14 78-72 7-53-33-79-78-60v132" id="aj"/><use transform="matrix(0.07989750757046354,0,0,0.07989750757046354,0,0)" xlink:href="#aj" id="r"/></defs></g></svg>