<svg xmlns="http://www.w3.org/2000/svg" xmlns:xlink="http://www.w3.org/1999/xlink" xmlns:lucid="lucid" width="602.96" height="465.93"><g transform="translate(0 0)" lucid:page-tab-id="0_0"><path d="M425.96 10.96h80v226h-80z" stroke="#000" stroke-opacity="0" stroke-width="2" fill="#fff" fill-opacity="0"/><use xlink:href="#a" transform="matrix(1,0,0,1,430.962962962963,15.962962962962976) translate(7.074999999999999 25.20000000000001)"/><use xlink:href="#b" transform="matrix(1,0,0,1,430.962962962963,15.962962962962976) translate(35 46.80000000000001)"/><use xlink:href="#b" transform="matrix(1,0,0,1,430.962962962963,15.962962962962976) translate(35 68.40000000000002)"/><use xlink:href="#b" transform="matrix(1,0,0,1,430.962962962963,15.962962962962976) translate(35 90.00000000000003)"/><use xlink:href="#c" transform="matrix(1,0,0,1,430.962962962963,15.962962962962976) translate(7.049999999999997 111.60000000000002)"/><use xlink:href="#b" transform="matrix(1,0,0,1,430.962962962963,15.962962962962976) translate(35 133.20000000000002)"/><use xlink:href="#b" transform="matrix(1,0,0,1,430.962962962963,15.962962962962976) translate(35 154.8)"/><use xlink:href="#b" transform="matrix(1,0,0,1,430.962962962963,15.962962962962976) translate(35 176.4)"/><use xlink:href="#d" transform="matrix(1,0,0,1,430.962962962963,15.962962962962976) translate(4.549999999999997 198)"/><path d="M45.96 103.96h60v40h-60z" stroke="#000" stroke-opacity="0" stroke-width="2" fill="#fff" fill-opacity="0"/><use xlink:href="#e" transform="matrix(1,0,0,1,50.96296296296299,108.96296296296296) translate(7.074999999999999 18.6)"/><use xlink:href="#f" transform="matrix(1,0,0,1,50.96296296296299,108.96296296296296) translate(36.974999999999994 18.6)"/><path d="M124.2 123.96h283.53" stroke="#000" stroke-width="2" fill="none"/><path d="M123.46 128.6l-14.26-4.64 14.26-4.63z"/><path d="M124.46 129.97l-18.5-6 18.5-6.02zm-12.02-6l10.02 3.25v-6.52zM422.73 123.96l-14.27 4.64v-9.27z"/><path d="M425.96 123.96l-18.5 6v-12zm-16.5 3.26l10.03-3.26-10.04-3.26z"/><path d="M257.3 123.96l152.55 80.84" stroke="#000" stroke-width="2" fill="none"/><path d="M423.1 211.82l-14.77-2.58 4.34-8.2z"/><path d="M425.96 213.34L406.8 210l5.63-10.64zm-16.1-4.85l10.38 1.8-7.33-7.57z"/><path d="M258.6 123.96l151.36-82.8" stroke="#000" stroke-width="2" fill="none"/><path d="M412.83 44.88l-4.45-8.14 14.74-2.78z"/><path d="M425.96 32.4l-13.34 14.17-5.77-10.55 19.1-3.6zm-16.04 5.07l3.13 5.72 7.23-7.68z"/><path d="M245.96 159.96h140v53.2h-140z" stroke="#000" stroke-opacity="0" stroke-width="2" fill="#fff" fill-opacity="0"/><use xlink:href="#g" transform="matrix(1,0,0,1,250.962962962963,164.962962962963) translate(0 14.4)"/><use xlink:href="#h" transform="matrix(1,0,0,1,250.962962962963,164.962962962963) translate(0 36)"/><use xlink:href="#i" transform="matrix(1,0,0,1,250.962962962963,164.962962962963) translate(81.65 36)"/><path d="M235.96 10.96h160v40h-160z" stroke="#000" stroke-opacity="0" stroke-width="2" fill="#fff" fill-opacity="0"/><use xlink:href="#j" transform="matrix(1,0,0,1,240.962962962963,15.962962962962969) translate(0 14.4)"/><use xlink:href="#k" transform="matrix(1,0,0,1,240.962962962963,15.962962962962969) translate(0 36)"/><use xlink:href="#l" transform="matrix(1,0,0,1,240.962962962963,15.962962962962969) translate(120.35000000000001 36)"/><path d="M215.96 276.96h40v20h-40z" stroke="#000" stroke-opacity="0" stroke-width="2" fill="#fff" fill-opacity="0"/><use xlink:href="#m" transform="matrix(1,0,0,1,220.962962962963,281.96296296296293) translate(5 14.4)"/><path d="M312.96 251.96h100v53.2h-100z" stroke="#000" stroke-opacity="0" stroke-width="2" fill="#fff" fill-opacity="0"/><use xlink:href="#e" transform="matrix(1,0,0,1,317.962962962963,256.96296296296293) translate(7.074999999999996 25.6)"/><use xlink:href="#n" transform="matrix(1,0,0,1,317.962962962963,256.96296296296293) translate(36.974999999999994 25.6)"/><use xlink:href="#f" transform="matrix(1,0,0,1,317.962962962963,256.96296296296293) translate(76.975 25.6)"/><path d="M298.96 288.96h120v40h-120z" stroke="#000" stroke-opacity="0" stroke-width="2" fill="#fff" fill-opacity="0"/><use xlink:href="#o" transform="matrix(1,0,0,1,303.962962962963,293.96296296296293) translate(22.074999999999996 19.1)"/><path d="M342.96 343.96h120v40h-120z" stroke="#000" stroke-opacity="0" stroke-width="2" fill="#fff" fill-opacity="0"/><use xlink:href="#p" transform="matrix(1,0,0,1,347.962962962963,348.96296296296293) translate(6.174999999999997 19.1)"/><use xlink:href="#q" transform="matrix(1,0,0,1,347.962962962963,348.96296296296293) translate(51.075 19.1)"/><use xlink:href="#f" transform="matrix(1,0,0,1,347.962962962963,348.96296296296293) translate(97.875 19.1)"/><path d="M75.96 255.96h120v40h-120z" stroke="#000" stroke-opacity="0" stroke-width="2" fill="#fff" fill-opacity="0"/><use xlink:href="#r" transform="matrix(1,0,0,1,80.96296296296299,260.96296296296293) translate(22.674999999999997 19.1)"/><use xlink:href="#s" transform="matrix(1,0,0,1,80.96296296296299,260.96296296296293) translate(59.574999999999996 19.1)"/><use xlink:href="#f" transform="matrix(1,0,0,1,80.96296296296299,260.96296296296293) translate(81.375 19.1)"/><path d="M73.96 290.96h120v40h-120z" stroke="#000" stroke-opacity="0" stroke-width="2" fill="#fff" fill-opacity="0"/><use xlink:href="#t" transform="matrix(1,0,0,1,78.96296296296299,295.96296296296293) translate(24.075000000000003 19.1)"/><use xlink:href="#u" transform="matrix(1,0,0,1,78.96296296296299,295.96296296296293) translate(59.975 19.1)"/><path d="M454.96 343.96h120v40h-120z" stroke="#000" stroke-opacity="0" stroke-width="2" fill="#fff" fill-opacity="0"/><use xlink:href="#v" transform="matrix(1,0,0,1,459.96296296296305,348.96296296296293) translate(16.574999999999996 19.1)"/><use xlink:href="#w" transform="matrix(1,0,0,1,459.96296296296305,348.96296296296293) translate(47.474999999999994 19.1)"/><use xlink:href="#f" transform="matrix(1,0,0,1,459.96296296296305,348.96296296296293) translate(87.475 19.1)"/><path d="M10.96 271.96h60v40h-60z" stroke="#000" stroke-opacity="0" stroke-width="2" fill="#fff" fill-opacity="0"/><use xlink:href="#x" transform="matrix(1,0,0,1,15.96296296296299,276.96296296296293) translate(16.6 19.1)"/><path d="M74.2 289.96h113.53" stroke="#000" stroke-width="2" fill="none"/><path d="M59.2 289.96l14.26-4.63v9.27zM202.73 289.96l-14.27 4.64v-9.27z" stroke="#000" stroke-width="2"/><path d="M205.96 414.96h60v40h-60z" stroke="#000" stroke-opacity="0" stroke-width="2" fill="#fff" fill-opacity="0"/><g><use xlink:href="#y" transform="matrix(1,0,0,1,210.962962962963,419.96296296296293) translate(11.600000000000001 19.1)"/></g><path d="M233.96 395.73V332.2" stroke="#000" stroke-width="2" fill="none"/><path d="M233.96 410.73l-4.63-14.27h9.27zM233.96 317.2l4.64 14.26h-9.27z" stroke="#000" stroke-width="2"/><path d="M215.96 346.96h120v40h-120z" stroke="#000" stroke-opacity="0" stroke-width="2" fill="#fff" fill-opacity="0"/><g><use xlink:href="#v" transform="matrix(1,0,0,1,220.962962962963,351.96296296296293) translate(24.075 19.1)"/><use xlink:href="#z" transform="matrix(1,0,0,1,220.962962962963,351.96296296296293) translate(54.974999999999994 19.1)"/><use xlink:href="#f" transform="matrix(1,0,0,1,220.962962962963,351.96296296296293) translate(79.975 19.1)"/></g><path d="M141.96 340.36h100v53.2h-100z" stroke="#000" stroke-opacity="0" stroke-width="2" fill="#fff" fill-opacity="0"/><g><use xlink:href="#e" transform="matrix(1,0,0,1,146.962962962963,345.3629629629629) translate(11.175000000000004 25.6)"/><use xlink:href="#A" transform="matrix(1,0,0,1,146.962962962963,345.3629629629629) translate(41.075 25.6)"/><use xlink:href="#f" transform="matrix(1,0,0,1,146.962962962963,345.3629629629629) translate(72.875 25.6)"/></g><path d="M405.96 272.96h120v40h-120z" stroke="#000" stroke-opacity="0" stroke-width="2" fill="#fff" fill-opacity="0"/><g><use xlink:href="#B" transform="matrix(1,0,0,1,410.962962962963,277.96296296296293) translate(37.5 19.1)"/></g><path d="M427.96 414.96h70v40h-70z" stroke="#000" stroke-opacity="0" stroke-width="2" fill="#fff" fill-opacity="0"/><g><use xlink:href="#C" transform="matrix(1,0,0,1,432.962962962963,419.96296296296293) translate(9.100000000000001 19.1)"/></g><path d="M460.96 395.73V332.2" stroke="#000" stroke-width="2" fill="none"/><path d="M460.96 410.73l-4.63-14.27h9.27zM460.96 317.2l4.64 14.26h-9.27z" stroke="#000" stroke-width="2"/><path d="M294.2 289.96h113.53" stroke="#000" stroke-width="2" fill="none"/><path d="M279.2 289.96l14.26-4.63v9.27zM422.73 289.96l-14.27 4.64v-9.27z" stroke="#000" stroke-width="2"/><defs><path d="M115-194c53 0 69 39 70 98 0 66-23 100-70 100C84 3 66-7 56-30L54 0H23l1-261h32v101c10-23 28-34 59-34zm-8 174c40 0 45-34 45-75 0-40-5-75-45-74-42 0-51 32-51 76 0 43 10 73 51 73" id="D"/><path d="M24-231v-30h32v30H24zM24 0v-190h32V0H24" id="E"/><path d="M117-194c89-4 53 116 60 194h-32v-121c0-31-8-49-39-48C34-167 62-67 57 0H25l-1-190h30c1 10-1 24 2 32 11-22 29-35 61-36" id="F"/><path d="M87 75C49 33 22-17 22-94c0-76 28-126 65-167h31c-38 41-64 92-64 168S80 34 118 75H87" id="G"/><path d="M155-56V0h-30v-56H8v-25l114-167h33v167h35v25h-35zm-30-156c-27 46-58 90-88 131h88v-131" id="H"/><path d="M126-127c33 6 58 20 58 59 0 88-139 92-164 29-3-8-5-16-6-25l32-3c6 27 21 44 54 44 32 0 52-15 52-46 0-38-36-46-79-43v-28c39 1 72-4 72-42 0-27-17-43-46-43-28 0-47 15-49 41l-32-3c6-42 35-63 81-64 48-1 79 21 79 65 0 36-21 52-52 59" id="I"/><path d="M33-261c38 41 65 92 65 168S71 34 33 75H2C39 34 66-17 66-93S39-220 2-261h31" id="J"/><g id="a"><use transform="matrix(0.05,0,0,0.05,0,0)" xlink:href="#D"/><use transform="matrix(0.05,0,0,0.05,10,0)" xlink:href="#E"/><use transform="matrix(0.05,0,0,0.05,13.949999999999998,0)" xlink:href="#F"/><use transform="matrix(0.05,0,0,0.05,23.95,0)" xlink:href="#G"/><use transform="matrix(0.05,0,0,0.05,29.899999999999995,0)" xlink:href="#H"/><use transform="matrix(0.05,0,0,0.05,39.9,0)" xlink:href="#I"/><use transform="matrix(0.05,0,0,0.05,49.9,0)" xlink:href="#J"/></g><path d="M100-194c62-1 85 37 85 99 1 63-27 99-86 99S16-35 15-95c0-66 28-99 85-99zM99-20c44 1 53-31 53-75 0-43-8-75-51-75s-53 32-53 75 10 74 51 75" id="K"/><path d="M96-169c-40 0-48 33-48 73s9 75 48 75c24 0 41-14 43-38l32 2c-6 37-31 61-74 61-59 0-76-41-82-99-10-93 101-131 147-64 4 7 5 14 7 22l-32 3c-4-21-16-35-41-35" id="L"/><path d="M59-47c-2 24 18 29 38 22v24C64 9 27 4 27-40v-127H5v-23h24l9-43h21v43h35v23H59v120" id="M"/><path d="M54-142c48-35 137-8 131 61C196 18 31 33 14-55l32-4c7 23 22 37 52 37 35-1 51-22 54-58 4-55-73-65-99-34H22l8-134h141v27H59" id="N"/><path d="M110-160c48 1 74 30 74 79 0 53-28 85-80 85-65 0-83-55-86-122-5-90 50-162 133-122 14 7 22 21 27 39l-31 6c-5-40-67-38-82-6-9 19-15 44-15 74 11-20 30-34 60-33zm-7 138c34 0 49-23 49-58s-16-56-50-56c-29 0-50 16-49 49 1 36 15 65 50 65" id="O"/><g id="c"><use transform="matrix(0.05,0,0,0.05,0,0)" xlink:href="#K"/><use transform="matrix(0.05,0,0,0.05,10,0)" xlink:href="#L"/><use transform="matrix(0.05,0,0,0.05,19,0)" xlink:href="#M"/><use transform="matrix(0.05,0,0,0.05,24,0)" xlink:href="#G"/><use transform="matrix(0.05,0,0,0.05,29.950000000000003,0)" xlink:href="#N"/><use transform="matrix(0.05,0,0,0.05,39.95,0)" xlink:href="#O"/><use transform="matrix(0.05,0,0,0.05,49.95,0)" xlink:href="#J"/></g><path d="M106-169C34-169 62-67 57 0H25v-261h32l-1 103c12-21 28-36 61-36 89 0 53 116 60 194h-32v-121c2-32-8-49-39-48" id="P"/><path d="M100-194c63 0 86 42 84 106H49c0 40 14 67 53 68 26 1 43-12 49-29l28 8c-11 28-37 45-77 45C44 4 14-33 15-96c1-61 26-98 85-98zm52 81c6-60-76-77-97-28-3 7-6 17-6 28h103" id="Q"/><path d="M141 0L90-78 38 0H4l68-98-65-92h35l48 74 47-74h35l-64 92 68 98h-35" id="R"/><path d="M99-251c64 0 84 50 84 122C183-37 130 33 47-8c-14-7-20-23-25-40l30-5c6 39 69 39 84 7 9-19 16-44 16-74-10 22-31 35-62 35-49 0-73-33-73-83 0-54 28-83 82-83zm-1 141c31-1 51-18 51-49 0-36-14-67-51-67-34 0-49 23-49 58 0 34 15 58 49 58" id="S"/><g id="d"><use transform="matrix(0.05,0,0,0.05,0,0)" xlink:href="#P"/><use transform="matrix(0.05,0,0,0.05,10,0)" xlink:href="#Q"/><use transform="matrix(0.05,0,0,0.05,20,0)" xlink:href="#R"/><use transform="matrix(0.05,0,0,0.05,29,0)" xlink:href="#G"/><use transform="matrix(0.05,0,0,0.05,34.95,0)" xlink:href="#S"/><use transform="matrix(0.05,0,0,0.05,44.95,0)" xlink:href="#N"/><use transform="matrix(0.05,0,0,0.05,54.95,0)" xlink:href="#J"/></g><g id="e"><use transform="matrix(0.05,0,0,0.05,0,0)" xlink:href="#E"/><use transform="matrix(0.05,0,0,0.05,3.95,0)" xlink:href="#F"/><use transform="matrix(0.05,0,0,0.05,13.949999999999998,0)" xlink:href="#M"/><use transform="matrix(0.05,0,0,0.05,18.95,0)" xlink:href="#G"/></g><use transform="matrix(0.05,0,0,0.05,0,0)" xlink:href="#J" id="f"/><path d="M47-170H22l-4-78h33" id="T"/><path d="M63-220v92h138v28H63V0H30v-248h175v28H63" id="U"/><path d="M68-38c1 34 0 65-14 84H32c9-13 17-26 17-46H33v-38h35" id="V"/><path d="M27 0v-27h64v-190l-56 39v-29l58-41h29v221h61V0H27" id="W"/><g id="g"><use transform="matrix(0.05,0,0,0.05,0,0)" xlink:href="#E"/><use transform="matrix(0.05,0,0,0.05,3.95,0)" xlink:href="#F"/><use transform="matrix(0.05,0,0,0.05,13.949999999999998,0)" xlink:href="#M"/><use transform="matrix(0.05,0,0,0.05,18.95,0)" xlink:href="#G"/><use transform="matrix(0.05,0,0,0.05,24.9,0)" xlink:href="#T"/><use transform="matrix(0.05,0,0,0.05,28.299999999999997,0)" xlink:href="#N"/><use transform="matrix(0.05,0,0,0.05,38.3,0)" xlink:href="#U"/><use transform="matrix(0.05,0,0,0.05,49.25,0)" xlink:href="#T"/><use transform="matrix(0.05,0,0,0.05,52.650000000000006,0)" xlink:href="#V"/><use transform="matrix(0.05,0,0,0.05,57.650000000000006,0)" xlink:href="#W"/><use transform="matrix(0.05,0,0,0.05,67.65,0)" xlink:href="#O"/><use transform="matrix(0.05,0,0,0.05,77.65,0)" xlink:href="#J"/></g><path d="M101-251c68 0 85 55 85 127S166 4 100 4C33 4 14-52 14-124c0-73 17-127 87-127zm-1 229c47 0 54-49 54-102s-4-102-53-102c-51 0-55 48-55 102 0 53 5 102 54 102" id="X"/><g id="h"><use transform="matrix(0.05,0,0,0.05,0,0)" xlink:href="#E"/><use transform="matrix(0.05,0,0,0.05,3.95,0)" xlink:href="#F"/><use transform="matrix(0.05,0,0,0.05,13.949999999999998,0)" xlink:href="#M"/><use transform="matrix(0.05,0,0,0.05,18.95,0)" xlink:href="#G"/><use transform="matrix(0.05,0,0,0.05,24.9,0)" xlink:href="#T"/><use transform="matrix(0.05,0,0,0.05,28.299999999999997,0)" xlink:href="#X"/><use transform="matrix(0.05,0,0,0.05,38.3,0)" xlink:href="#R"/><use transform="matrix(0.05,0,0,0.05,47.3,0)" xlink:href="#N"/><use transform="matrix(0.05,0,0,0.05,57.29999999999999,0)" xlink:href="#U"/><use transform="matrix(0.05,0,0,0.05,68.25,0)" xlink:href="#T"/><use transform="matrix(0.05,0,0,0.05,71.65,0)" xlink:href="#V"/></g><g id="i"><use transform="matrix(0.05,0,0,0.05,0,0)" xlink:href="#W"/><use transform="matrix(0.05,0,0,0.05,10,0)" xlink:href="#O"/><use transform="matrix(0.05,0,0,0.05,20,0)" xlink:href="#J"/></g><path d="M101-251c82-7 93 87 43 132L82-64C71-53 59-42 53-27h129V0H18c2-99 128-94 128-182 0-28-16-43-45-43s-46 15-49 41l-32-3c6-41 34-60 81-64" id="Y"/><g id="j"><use transform="matrix(0.05,0,0,0.05,0,0)" xlink:href="#E"/><use transform="matrix(0.05,0,0,0.05,3.95,0)" xlink:href="#F"/><use transform="matrix(0.05,0,0,0.05,13.949999999999998,0)" xlink:href="#M"/><use transform="matrix(0.05,0,0,0.05,18.95,0)" xlink:href="#G"/><use transform="matrix(0.05,0,0,0.05,24.9,0)" xlink:href="#T"/><use transform="matrix(0.05,0,0,0.05,28.299999999999997,0)" xlink:href="#W"/><use transform="matrix(0.05,0,0,0.05,38.3,0)" xlink:href="#X"/><use transform="matrix(0.05,0,0,0.05,48.3,0)" xlink:href="#W"/><use transform="matrix(0.05,0,0,0.05,58.29999999999999,0)" xlink:href="#X"/><use transform="matrix(0.05,0,0,0.05,68.3,0)" xlink:href="#W"/><use transform="matrix(0.05,0,0,0.05,76.95,0)" xlink:href="#W"/><use transform="matrix(0.05,0,0,0.05,86.95,0)" xlink:href="#T"/><use transform="matrix(0.05,0,0,0.05,90.35000000000001,0)" xlink:href="#V"/><use transform="matrix(0.05,0,0,0.05,95.35000000000001,0)" xlink:href="#Y"/><use transform="matrix(0.05,0,0,0.05,105.35000000000001,0)" xlink:href="#J"/></g><g id="k"><use transform="matrix(0.05,0,0,0.05,0,0)" xlink:href="#E"/><use transform="matrix(0.05,0,0,0.05,3.95,0)" xlink:href="#F"/><use transform="matrix(0.05,0,0,0.05,13.949999999999998,0)" xlink:href="#M"/><use transform="matrix(0.05,0,0,0.05,18.95,0)" xlink:href="#G"/><use transform="matrix(0.05,0,0,0.05,24.9,0)" xlink:href="#T"/><use transform="matrix(0.05,0,0,0.05,28.299999999999997,0)" xlink:href="#X"/><use transform="matrix(0.05,0,0,0.05,38.3,0)" xlink:href="#D"/><use transform="matrix(0.05,0,0,0.05,48.3,0)" xlink:href="#W"/><use transform="matrix(0.05,0,0,0.05,58.29999999999999,0)" xlink:href="#X"/><use transform="matrix(0.05,0,0,0.05,68.3,0)" xlink:href="#W"/><use transform="matrix(0.05,0,0,0.05,78.3,0)" xlink:href="#X"/><use transform="matrix(0.05,0,0,0.05,88.3,0)" xlink:href="#W"/><use transform="matrix(0.05,0,0,0.05,96.95,0)" xlink:href="#W"/><use transform="matrix(0.05,0,0,0.05,106.95,0)" xlink:href="#T"/><use transform="matrix(0.05,0,0,0.05,110.35000000000001,0)" xlink:href="#V"/></g><g id="l"><use transform="matrix(0.05,0,0,0.05,0,0)" xlink:href="#Y"/><use transform="matrix(0.05,0,0,0.05,10,0)" xlink:href="#J"/></g><path d="M64 0c3-98 48-159 88-221H18v-27h164v26C143-157 98-101 97 0H64" id="Z"/><g id="m"><use transform="matrix(0.05,0,0,0.05,0,0)" xlink:href="#S"/><use transform="matrix(0.05,0,0,0.05,10,0)" xlink:href="#Z"/></g><path d="M33 0v-38h34V0H33" id="aa"/><path d="M134-131c28 9 52 24 51 62-1 50-34 73-85 73S17-19 16-69c0-36 21-54 49-61-75-25-45-126 34-121 46 3 78 18 79 63 0 33-17 51-44 57zm-34-11c31 1 46-15 46-44 0-28-17-43-47-42-29 0-46 13-45 42 1 28 16 44 46 44zm1 122c35 0 51-18 51-52 0-30-18-46-53-46-33 0-51 17-51 47 0 34 19 51 53 51" id="ab"/><g id="n"><use transform="matrix(0.05,0,0,0.05,0,0)" xlink:href="#S"/><use transform="matrix(0.05,0,0,0.05,10,0)" xlink:href="#Z"/><use transform="matrix(0.05,0,0,0.05,20,0)" xlink:href="#aa"/><use transform="matrix(0.05,0,0,0.05,25,0)" xlink:href="#ab"/></g><path d="M101-234c-31-9-42 10-38 44h38v23H63V0H32v-167H5v-23h27c-7-52 17-82 69-68v24" id="ac"/><path d="M24 0v-261h32V0H24" id="ad"/><path d="M141-36C126-15 110 5 73 4 37 3 15-17 15-53c-1-64 63-63 125-63 3-35-9-54-41-54-24 1-41 7-42 31l-33-3c5-37 33-52 76-52 45 0 72 20 72 64v82c-1 20 7 32 28 27v20c-31 9-61-2-59-35zM48-53c0 20 12 33 32 33 41-3 63-29 60-74-43 2-92-5-92 41" id="ae"/><g id="o"><use transform="matrix(0.05,0,0,0.05,0,0)" xlink:href="#ac"/><use transform="matrix(0.05,0,0,0.05,5,0)" xlink:href="#ad"/><use transform="matrix(0.05,0,0,0.05,8.95,0)" xlink:href="#K"/><use transform="matrix(0.05,0,0,0.05,18.95,0)" xlink:href="#ae"/><use transform="matrix(0.05,0,0,0.05,28.950000000000003,0)" xlink:href="#M"/><use transform="matrix(0.05,0,0,0.05,33.95,0)" xlink:href="#G"/><use transform="matrix(0.05,0,0,0.05,39.900000000000006,0)" xlink:href="#S"/><use transform="matrix(0.05,0,0,0.05,49.900000000000006,0)" xlink:href="#Z"/><use transform="matrix(0.05,0,0,0.05,59.900000000000006,0)" xlink:href="#J"/></g><g id="p"><use transform="matrix(0.05,0,0,0.05,0,0)" xlink:href="#ac"/><use transform="matrix(0.05,0,0,0.05,5,0)" xlink:href="#ad"/><use transform="matrix(0.05,0,0,0.05,8.95,0)" xlink:href="#K"/><use transform="matrix(0.05,0,0,0.05,18.95,0)" xlink:href="#ae"/><use transform="matrix(0.05,0,0,0.05,28.950000000000003,0)" xlink:href="#M"/><use transform="matrix(0.05,0,0,0.05,33.95,0)" xlink:href="#G"/></g><g id="q"><use transform="matrix(0.05,0,0,0.05,0,0)" xlink:href="#T"/><use transform="matrix(0.05,0,0,0.05,3.4000000000000004,0)" xlink:href="#S"/><use transform="matrix(0.05,0,0,0.05,13.4,0)" xlink:href="#Z"/><use transform="matrix(0.05,0,0,0.05,23.4,0)" xlink:href="#aa"/><use transform="matrix(0.05,0,0,0.05,28.399999999999995,0)" xlink:href="#X"/><use transform="matrix(0.05,0,0,0.05,38.4,0)" xlink:href="#T"/></g><path d="M114-163C36-179 61-72 57 0H25l-1-190h30c1 12-1 29 2 39 6-27 23-49 58-41v29" id="af"/><path d="M85-194c31 0 48 13 60 33l-1-100h32l1 261h-30c-2-10 0-23-3-31C134-8 116 4 85 4 32 4 16-35 15-94c0-66 23-100 70-100zm9 24c-40 0-46 34-46 75 0 40 6 74 45 74 42 0 51-32 51-76 0-42-9-74-50-73" id="ag"/><g id="r"><use transform="matrix(0.05,0,0,0.05,0,0)" xlink:href="#K"/><use transform="matrix(0.05,0,0,0.05,10,0)" xlink:href="#af"/><use transform="matrix(0.05,0,0,0.05,15.949999999999998,0)" xlink:href="#ag"/><use transform="matrix(0.05,0,0,0.05,25.950000000000003,0)" xlink:href="#G"/></g><g id="s"><use transform="matrix(0.05,0,0,0.05,0,0)" xlink:href="#T"/><use transform="matrix(0.05,0,0,0.05,3.4000000000000004,0)" xlink:href="#ae"/><use transform="matrix(0.05,0,0,0.05,13.4,0)" xlink:href="#T"/></g><g id="t"><use transform="matrix(0.05,0,0,0.05,0,0)" xlink:href="#L"/><use transform="matrix(0.05,0,0,0.05,9,0)" xlink:href="#P"/><use transform="matrix(0.05,0,0,0.05,19,0)" xlink:href="#af"/><use transform="matrix(0.05,0,0,0.05,24.95,0)" xlink:href="#G"/></g><g id="u"><use transform="matrix(0.05,0,0,0.05,0,0)" xlink:href="#S"/><use transform="matrix(0.05,0,0,0.05,10,0)" xlink:href="#Z"/><use transform="matrix(0.05,0,0,0.05,20,0)" xlink:href="#J"/></g><path d="M135-143c-3-34-86-38-87 0 15 53 115 12 119 90S17 21 10-45l28-5c4 36 97 45 98 0-10-56-113-15-118-90-4-57 82-63 122-42 12 7 21 19 24 35" id="ah"/><g id="v"><use transform="matrix(0.05,0,0,0.05,0,0)" xlink:href="#ah"/><use transform="matrix(0.05,0,0,0.05,9,0)" xlink:href="#M"/><use transform="matrix(0.05,0,0,0.05,14,0)" xlink:href="#af"/><use transform="matrix(0.05,0,0,0.05,19.95,0)" xlink:href="#G"/></g><g id="w"><use transform="matrix(0.05,0,0,0.05,0,0)" xlink:href="#S"/><use transform="matrix(0.05,0,0,0.05,10,0)" xlink:href="#Z"/><use transform="matrix(0.05,0,0,0.05,20,0)" xlink:href="#aa"/><use transform="matrix(0.05,0,0,0.05,25,0)" xlink:href="#X"/></g><g id="x"><use transform="matrix(0.05,0,0,0.05,0,0)" xlink:href="#T"/><use transform="matrix(0.05,0,0,0.05,3.4000000000000004,0)" xlink:href="#ae"/><use transform="matrix(0.05,0,0,0.05,13.4,0)" xlink:href="#T"/></g><g id="y"><use transform="matrix(0.05,0,0,0.05,0,0)" xlink:href="#T"/><use transform="matrix(0.05,0,0,0.05,3.4000000000000004,0)" xlink:href="#S"/><use transform="matrix(0.05,0,0,0.05,13.4,0)" xlink:href="#Z"/><use transform="matrix(0.05,0,0,0.05,23.4,0)" xlink:href="#T"/></g><g id="z"><use transform="matrix(0.05,0,0,0.05,0,0)" xlink:href="#S"/><use transform="matrix(0.05,0,0,0.05,10,0)" xlink:href="#Z"/></g><g id="A"><use transform="matrix(0.05,0,0,0.05,0,0)" xlink:href="#T"/><use transform="matrix(0.05,0,0,0.05,3.4000000000000004,0)" xlink:href="#S"/><use transform="matrix(0.05,0,0,0.05,13.4,0)" xlink:href="#Z"/><use transform="matrix(0.05,0,0,0.05,23.4,0)" xlink:href="#T"/></g><g id="B"><use transform="matrix(0.05,0,0,0.05,0,0)" xlink:href="#S"/><use transform="matrix(0.05,0,0,0.05,10,0)" xlink:href="#Z"/><use transform="matrix(0.05,0,0,0.05,20,0)" xlink:href="#aa"/><use transform="matrix(0.05,0,0,0.05,25,0)" xlink:href="#X"/></g><g id="C"><use transform="matrix(0.05,0,0,0.05,0,0)" xlink:href="#T"/><use transform="matrix(0.05,0,0,0.05,3.4000000000000004,0)" xlink:href="#S"/><use transform="matrix(0.05,0,0,0.05,13.4,0)" xlink:href="#Z"/><use transform="matrix(0.05,0,0,0.05,23.4,0)" xlink:href="#aa"/><use transform="matrix(0.05,0,0,0.05,28.399999999999995,0)" xlink:href="#X"/><use transform="matrix(0.05,0,0,0.05,38.4,0)" xlink:href="#T"/></g></defs></g></svg>