<svg xmlns="http://www.w3.org/2000/svg" xmlns:xlink="http://www.w3.org/1999/xlink" xmlns:lucid="lucid" width="633.96" height="452.83"><g transform="translate(0 0)" lucid:page-tab-id="0_0"><path d="M-61.9 23.1c0-2.75 2.25-5 5-5h650c2.77 0 5 2.25 5 5v50c0 2.77-2.23 5-5 5h-650c-2.75 0-5-2.23-5-5z" stroke="#000" stroke-opacity="0" stroke-width="2" fill="#fff" fill-opacity="0"/><use xlink:href="#a" transform="matrix(1,0,0,1,-56.886792452830264,23.11320754716982) translate(221.8 28.6)"/><use xlink:href="#b" transform="matrix(1,0,0,1,-56.886792452830264,23.11320754716982) translate(236.8 28.6)"/><use xlink:href="#c" transform="matrix(1,0,0,1,-56.886792452830264,23.11320754716982) translate(252.3 28.6)"/><use xlink:href="#d" transform="matrix(1,0,0,1,-56.886792452830264,23.11320754716982) translate(263.25 28.6)"/><use xlink:href="#e" transform="matrix(1,0,0,1,-56.886792452830264,23.11320754716982) translate(293.25 28.6)"/><use xlink:href="#f" transform="matrix(1,0,0,1,-56.886792452830264,23.11320754716982) translate(323.25 28.6)"/><use xlink:href="#g" transform="matrix(1,0,0,1,-56.886792452830264,23.11320754716982) translate(353.25 28.6)"/><use xlink:href="#h" transform="matrix(1,0,0,1,-56.886792452830264,23.11320754716982) translate(383.25 28.6)"/><use xlink:href="#i" transform="matrix(1,0,0,1,-56.886792452830264,23.11320754716982) translate(413.25 28.6)"/><path d="M-41.9 133.1c0-2.75 2.25-5 5-5h650c2.77 0 5 2.25 5 5v50c0 2.77-2.23 5-5 5h-650c-2.75 0-5-2.23-5-5z" stroke="#000" stroke-opacity="0" stroke-width="2" fill="#fff" fill-opacity="0"/><use xlink:href="#a" transform="matrix(1,0,0,1,-36.886792452830264,133.11320754716982) translate(191.8 28.6)"/><use xlink:href="#b" transform="matrix(1,0,0,1,-36.886792452830264,133.11320754716982) translate(206.8 28.6)"/><use xlink:href="#c" transform="matrix(1,0,0,1,-36.886792452830264,133.11320754716982) translate(222.3 28.6)"/><use xlink:href="#d" transform="matrix(1,0,0,1,-36.886792452830264,133.11320754716982) translate(233.25 28.6)"/><use xlink:href="#e" transform="matrix(1,0,0,1,-36.886792452830264,133.11320754716982) translate(263.25 28.6)"/><use xlink:href="#f" transform="matrix(1,0,0,1,-36.886792452830264,133.11320754716982) translate(293.25 28.6)"/><use xlink:href="#j" transform="matrix(1,0,0,1,-36.886792452830264,133.11320754716982) translate(323.25 28.6)"/><use xlink:href="#k" transform="matrix(1,0,0,1,-36.886792452830264,133.11320754716982) translate(353.25 28.6)"/><use xlink:href="#l" transform="matrix(1,0,0,1,-36.886792452830264,133.11320754716982) translate(383.25 28.6)"/><use xlink:href="#m" transform="matrix(1,0,0,1,-36.886792452830264,133.11320754716982) translate(413.25 28.6)"/><use xlink:href="#i" transform="matrix(1,0,0,1,-36.886792452830264,133.11320754716982) translate(443.25 28.6)"/><path d="M238.1 83.1c0-2.75 2.25-5 5-5h650c2.77 0 5 2.25 5 5v50c0 2.77-2.23 5-5 5h-650c-2.75 0-5-2.23-5-5z" stroke="#000" stroke-opacity="0" stroke-width="2" fill="#fff" fill-opacity="0"/><use xlink:href="#n" transform="matrix(1,0,0,1,243.1132075471698,83.11320754716982) translate(0 14.4)"/><use xlink:href="#o" transform="matrix(1,0,0,1,243.1132075471698,83.11320754716982) translate(95 14.4)"/><use xlink:href="#c" transform="matrix(1,0,0,1,243.1132075471698,83.11320754716982) translate(110 14.4)"/><use xlink:href="#p" transform="matrix(1,0,0,1,243.1132075471698,83.11320754716982) translate(120.95 14.4)"/><use xlink:href="#q" transform="matrix(1,0,0,1,243.1132075471698,83.11320754716982) translate(151.9 14.4)"/><use xlink:href="#r" transform="matrix(1,0,0,1,243.1132075471698,83.11320754716982) translate(162.85 14.4)"/><use xlink:href="#s" transform="matrix(1,0,0,1,243.1132075471698,83.11320754716982) translate(178.35 14.4)"/><use xlink:href="#t" transform="matrix(1,0,0,1,243.1132075471698,83.11320754716982) translate(204.29999999999998 14.4)"/><use xlink:href="#u" transform="matrix(1,0,0,1,243.1132075471698,83.11320754716982) translate(224.29999999999998 14.4)"/><use xlink:href="#v" transform="matrix(1,0,0,1,243.1132075471698,83.11320754716982) translate(244.29999999999998 14.4)"/><path d="M301.24 60.74h36.5M301.24 60.74h-3M337.74 60.74h3M287.1 170.1h100M324.24 78.1v50.67" stroke="#999" stroke-width="2" fill="none"/><path fill="#999"/><path d="M314.06 111.56l10.18 17.2 10.18-17.2" stroke="#999" stroke-width="2" fill="none"/><path d="M-54.9 252.1c0-2.75 2.25-5 5-5h650c2.77 0 5 2.25 5 5v50c0 2.77-2.23 5-5 5h-650c-2.75 0-5-2.23-5-5z" stroke="#000" stroke-opacity="0" stroke-width="2" fill="#fff" fill-opacity="0"/><g><use xlink:href="#a" transform="matrix(1,0,0,1,-49.886792452830264,252.11320754716985) translate(221.8 28.6)"/><use xlink:href="#b" transform="matrix(1,0,0,1,-49.886792452830264,252.11320754716985) translate(236.8 28.6)"/><use xlink:href="#c" transform="matrix(1,0,0,1,-49.886792452830264,252.11320754716985) translate(252.3 28.6)"/><use xlink:href="#d" transform="matrix(1,0,0,1,-49.886792452830264,252.11320754716985) translate(263.25 28.6)"/><use xlink:href="#e" transform="matrix(1,0,0,1,-49.886792452830264,252.11320754716985) translate(293.25 28.6)"/><use xlink:href="#f" transform="matrix(1,0,0,1,-49.886792452830264,252.11320754716985) translate(323.25 28.6)"/><use xlink:href="#g" transform="matrix(1,0,0,1,-49.886792452830264,252.11320754716985) translate(353.25 28.6)"/><use xlink:href="#h" transform="matrix(1,0,0,1,-49.886792452830264,252.11320754716985) translate(383.25 28.6)"/><use xlink:href="#i" transform="matrix(1,0,0,1,-49.886792452830264,252.11320754716985) translate(413.25 28.6)"/></g><path d="M212.24 290.74h11.87" stroke="#999" stroke-width="2" fill="none"/><path d="M238.1 195.1c0-2.75 2.25-5 5-5h650c2.77 0 5 2.25 5 5v50c0 2.77-2.23 5-5 5h-650c-2.75 0-5-2.23-5-5z" stroke="#000" stroke-opacity="0" stroke-width="2" fill="#fff" fill-opacity="0"/><g><use xlink:href="#n" transform="matrix(1,0,0,1,243.1132075471698,195.11320754716982) translate(0 14.4)"/><use xlink:href="#o" transform="matrix(1,0,0,1,243.1132075471698,195.11320754716982) translate(95 14.4)"/><use xlink:href="#c" transform="matrix(1,0,0,1,243.1132075471698,195.11320754716982) translate(110 14.4)"/><use xlink:href="#w" transform="matrix(1,0,0,1,243.1132075471698,195.11320754716982) translate(120.95 14.4)"/><use xlink:href="#q" transform="matrix(1,0,0,1,243.1132075471698,195.11320754716982) translate(151.9 14.4)"/><use xlink:href="#r" transform="matrix(1,0,0,1,243.1132075471698,195.11320754716982) translate(162.85 14.4)"/><use xlink:href="#x" transform="matrix(1,0,0,1,243.1132075471698,195.11320754716982) translate(178.35 14.4)"/><use xlink:href="#y" transform="matrix(1,0,0,1,243.1132075471698,195.11320754716982) translate(204.29999999999998 14.4)"/></g><path d="M324.24 190.1v50.67M314.06 223.56l10.18 17.2 10.18-17.2" stroke="#999" stroke-width="2" fill="none"/><path d="M-54.9 372.1c0-2.75 2.25-5 5-5h650c2.77 0 5 2.25 5 5v50c0 2.77-2.23 5-5 5h-650c-2.75 0-5-2.23-5-5z" stroke="#000" stroke-opacity="0" stroke-width="2" fill="#fff" fill-opacity="0"/><g><use xlink:href="#a" transform="matrix(1,0,0,1,-49.886792452830264,372.11320754716985) translate(206.8 28.6)"/><use xlink:href="#b" transform="matrix(1,0,0,1,-49.886792452830264,372.11320754716985) translate(221.8 28.6)"/><use xlink:href="#c" transform="matrix(1,0,0,1,-49.886792452830264,372.11320754716985) translate(237.3 28.6)"/><use xlink:href="#m" transform="matrix(1,0,0,1,-49.886792452830264,372.11320754716985) translate(248.25 28.6)"/><use xlink:href="#m" transform="matrix(1,0,0,1,-49.886792452830264,372.11320754716985) translate(278.25 28.6)"/><use xlink:href="#e" transform="matrix(1,0,0,1,-49.886792452830264,372.11320754716985) translate(308.25 28.6)"/><use xlink:href="#f" transform="matrix(1,0,0,1,-49.886792452830264,372.11320754716985) translate(338.25 28.6)"/><use xlink:href="#g" transform="matrix(1,0,0,1,-49.886792452830264,372.11320754716985) translate(368.25 28.6)"/><use xlink:href="#h" transform="matrix(1,0,0,1,-49.886792452830264,372.11320754716985) translate(398.25 28.6)"/><use xlink:href="#i" transform="matrix(1,0,0,1,-49.886792452830264,372.11320754716985) translate(428.25 28.6)"/></g><path d="M200.24 410.74h36.5M217.24 310.1v50.67M207.06 343.56l10.18 17.2 10.18-17.2" stroke="#999" stroke-width="2" fill="none"/><path d="M134.1 315.1c0-2.75 2.25-5 5-5h650c2.77 0 5 2.25 5 5v50c0 2.77-2.23 5-5 5h-650c-2.75 0-5-2.23-5-5z" stroke="#000" stroke-opacity="0" stroke-width="2" fill="#fff" fill-opacity="0"/><g><use xlink:href="#n" transform="matrix(1,0,0,1,139.1132075471698,315.11320754716985) translate(0 14.4)"/><use xlink:href="#o" transform="matrix(1,0,0,1,139.1132075471698,315.11320754716985) translate(95 14.4)"/><use xlink:href="#c" transform="matrix(1,0,0,1,139.1132075471698,315.11320754716985) translate(110 14.4)"/><use xlink:href="#z" transform="matrix(1,0,0,1,139.1132075471698,315.11320754716985) translate(120.95 14.4)"/><use xlink:href="#q" transform="matrix(1,0,0,1,139.1132075471698,315.11320754716985) translate(151.9 14.4)"/><use xlink:href="#r" transform="matrix(1,0,0,1,139.1132075471698,315.11320754716985) translate(162.85 14.4)"/><use xlink:href="#A" transform="matrix(1,0,0,1,139.1132075471698,315.11320754716985) translate(178.35 14.4)"/><use xlink:href="#v" transform="matrix(1,0,0,1,139.1132075471698,315.11320754716985) translate(204.29999999999998 14.4)"/></g><path d="M307.24 288.74h36.5" stroke="#999" stroke-width="2" fill="none"/><defs><path fill="#333" d="M144 0l-44-69L55 0H2l70-98-66-92h53l41 62 40-62h54l-67 91 71 99h-54" id="B"/><use transform="matrix(0.05,0,0,0.05,0,0)" xlink:href="#B" id="a"/><path fill="#333" d="M15-148v-39h180v39H15zm0 97v-39h180v39H15" id="C"/><use transform="matrix(0.05,0,0,0.05,0,0)" xlink:href="#C" id="b"/><path fill="#333" d="M20 75v-336h95v34H67V41h48v34H20" id="D"/><use transform="matrix(0.05,0,0,0.05,0,0)" xlink:href="#D" id="c"/><path fill="#333" d="M101-251c68 0 84 54 84 127C185-50 166 4 99 4S15-52 14-124c-1-75 17-127 87-127zm-1 216c37-5 36-46 36-89s4-89-36-89c-39 0-36 45-36 89 0 43-3 85 36 89" id="E"/><path fill="#333" d="M76-54c-1 42 2 86-19 110H24C36 42 46 24 48 0H25v-54h51" id="F"/><g id="d"><use transform="matrix(0.05,0,0,0.05,0,0)" xlink:href="#E"/><use transform="matrix(0.05,0,0,0.05,10,0)" xlink:href="#F"/></g><path fill="#333" d="M23 0v-37h61v-169l-59 37v-38l62-41h46v211h57V0H23" id="G"/><g id="e"><use transform="matrix(0.05,0,0,0.05,0,0)" xlink:href="#G"/><use transform="matrix(0.05,0,0,0.05,10,0)" xlink:href="#F"/></g><path fill="#333" d="M182-182c0 78-84 86-111 141h115V0H12c-6-101 99-100 120-180 1-22-12-31-33-32-23 0-32 14-35 34l-49-3c5-45 32-70 84-70 51 0 83 22 83 69" id="H"/><g id="f"><use transform="matrix(0.05,0,0,0.05,0,0)" xlink:href="#H"/><use transform="matrix(0.05,0,0,0.05,10,0)" xlink:href="#F"/></g><path fill="#333" d="M128-127c34 4 56 21 59 58 7 91-148 94-172 28-4-9-6-17-7-26l51-5c1 24 16 35 40 36 23 0 39-12 38-36-1-31-31-36-65-34v-40c32 2 59-3 59-33 0-20-13-33-34-33s-33 13-35 32l-50-3c6-44 37-68 86-68 50 0 83 20 83 66 0 35-22 52-53 58" id="I"/><g id="g"><use transform="matrix(0.05,0,0,0.05,0,0)" xlink:href="#I"/><use transform="matrix(0.05,0,0,0.05,10,0)" xlink:href="#F"/></g><path fill="#333" d="M165-50V0h-47v-50H5v-38l105-160h55v161h33v37h-33zm-47-37l2-116L46-87h72" id="J"/><g id="h"><use transform="matrix(0.05,0,0,0.05,0,0)" xlink:href="#J"/><use transform="matrix(0.05,0,0,0.05,10,0)" xlink:href="#F"/></g><path fill="#333" d="M99-251c69 0 84 53 88 123 5 99-61 162-144 118-15-8-21-25-26-45l46-6c4 31 50 33 63 7 7-15 12-36 12-60-9 18-29 28-54 28-48 0-72-32-72-82 0-55 31-83 87-83zm-1 128c24 0 37-16 37-39 0-27-10-51-37-51-25 0-35 19-35 45 0 25 10 45 35 45" id="K"/><path fill="#333" d="M4 75V41h49v-268H4v-34h96V75H4" id="L"/><g id="i"><use transform="matrix(0.05,0,0,0.05,0,0)" xlink:href="#K"/><use transform="matrix(0.05,0,0,0.05,10,0)" xlink:href="#L"/></g><path fill="#333" d="M139-81c0-46-55-55-73-27H18l9-140h149v37H72l-4 63c44-38 133-4 122 66C201 21 21 35 11-62l49-4c5 18 15 30 39 30 26 0 40-18 40-45" id="M"/><g id="j"><use transform="matrix(0.05,0,0,0.05,0,0)" xlink:href="#M"/><use transform="matrix(0.05,0,0,0.05,10,0)" xlink:href="#F"/></g><path fill="#333" d="M115-159c48 0 72 30 72 78 0 54-30 85-83 85-64 0-91-50-91-122 0-98 58-163 141-120 15 8 21 24 27 44l-47 6c-5-31-48-31-61-4-7 14-11 33-11 60 9-17 28-27 53-27zM102-35c24 0 36-20 36-45s-11-43-37-43c-23 0-36 14-36 38 0 27 11 50 37 50" id="N"/><g id="k"><use transform="matrix(0.05,0,0,0.05,0,0)" xlink:href="#N"/><use transform="matrix(0.05,0,0,0.05,10,0)" xlink:href="#F"/></g><path fill="#333" d="M52 0c1-96 47-148 87-207H15v-41h169v40c-36 62-79 113-81 208H52" id="O"/><g id="l"><use transform="matrix(0.05,0,0,0.05,0,0)" xlink:href="#O"/><use transform="matrix(0.05,0,0,0.05,10,0)" xlink:href="#F"/></g><path fill="#333" d="M138-131c27 9 52 24 51 61 0 53-36 74-89 74S11-19 11-69c0-35 22-54 51-61-78-25-46-121 38-121 51 0 83 19 83 66 0 30-18 49-45 54zm-38-16c24 0 32-13 32-36 1-23-11-34-32-34-22 0-33 12-32 34 0 22 9 36 32 36zm1 116c27 0 37-17 37-43 0-25-13-39-39-39-24 0-37 15-37 40 0 27 11 42 39 42" id="P"/><g id="m"><use transform="matrix(0.05,0,0,0.05,0,0)" xlink:href="#P"/><use transform="matrix(0.05,0,0,0.05,10,0)" xlink:href="#F"/></g><use transform="matrix(0.05,0,0,0.05,0,0)" xlink:href="#B" id="o"/><path fill="#333" d="M35-132v-50h50v50H35zM35 0v-49h50V0H35" id="Q"/><g id="p"><use transform="matrix(0.05,0,0,0.05,0,0)" xlink:href="#I"/><use transform="matrix(0.05,0,0,0.05,10,0)" xlink:href="#Q"/><use transform="matrix(0.05,0,0,0.05,15.949999999999998,0)" xlink:href="#M"/></g><use transform="matrix(0.05,0,0,0.05,0,0)" xlink:href="#L" id="q"/><use transform="matrix(0.05,0,0,0.05,0,0)" xlink:href="#C" id="r"/><g id="s"><use transform="matrix(0.05,0,0,0.05,0,0)" xlink:href="#D"/><use transform="matrix(0.05,0,0,0.05,5.95,0)" xlink:href="#M"/><use transform="matrix(0.05,0,0,0.05,15.949999999999998,0)" xlink:href="#F"/></g><g id="t"><use transform="matrix(0.05,0,0,0.05,0,0)" xlink:href="#N"/><use transform="matrix(0.05,0,0,0.05,10,0)" xlink:href="#F"/></g><g id="u"><use transform="matrix(0.05,0,0,0.05,0,0)" xlink:href="#O"/><use transform="matrix(0.05,0,0,0.05,10,0)" xlink:href="#F"/></g><g id="v"><use transform="matrix(0.05,0,0,0.05,0,0)" xlink:href="#P"/><use transform="matrix(0.05,0,0,0.05,10,0)" xlink:href="#L"/></g><g id="w"><use transform="matrix(0.05,0,0,0.05,0,0)" xlink:href="#I"/><use transform="matrix(0.05,0,0,0.05,10,0)" xlink:href="#Q"/><use transform="matrix(0.05,0,0,0.05,15.949999999999998,0)" xlink:href="#O"/></g><g id="x"><use transform="matrix(0.05,0,0,0.05,0,0)" xlink:href="#D"/><use transform="matrix(0.05,0,0,0.05,5.95,0)" xlink:href="#I"/><use transform="matrix(0.05,0,0,0.05,15.949999999999998,0)" xlink:href="#F"/></g><g id="y"><use transform="matrix(0.05,0,0,0.05,0,0)" xlink:href="#J"/><use transform="matrix(0.05,0,0,0.05,10,0)" xlink:href="#L"/></g><g id="z"><use transform="matrix(0.05,0,0,0.05,0,0)" xlink:href="#E"/><use transform="matrix(0.05,0,0,0.05,10,0)" xlink:href="#Q"/><use transform="matrix(0.05,0,0,0.05,15.949999999999998,0)" xlink:href="#G"/></g><g id="A"><use transform="matrix(0.05,0,0,0.05,0,0)" xlink:href="#D"/><use transform="matrix(0.05,0,0,0.05,5.95,0)" xlink:href="#P"/><use transform="matrix(0.05,0,0,0.05,15.949999999999998,0)" xlink:href="#F"/></g></defs></g></svg>